<svg width="245" height="240" viewBox="0 0 245 240" fill="none" xmlns="http://www.w3.org/2000/svg">
<g opacity="0.2" clip-path="url(#clip0_910_6143)">
<path d="M90.8094 119.979C91.8078 118.228 92.8338 116.894 93.8263 115.604C95.6478 113.236 97.2213 111.191 98.1403 107.255C99.3997 101.863 99.6309 95.8178 99.854 89.9722C99.9181 88.3022 99.9814 86.655 100.067 85.0535C101.114 65.6008 94.5434 49.3455 78.7628 32.3467C77.6093 31.1039 75.6573 29.3144 73.1851 27.0489C63.4202 18.0983 47.0761 3.11758 49.2424 -6.64986C49.978 -9.96825 52.8154 -12.4252 57.6572 -13.9442C79.384 -20.7652 106.445 -20.4343 128.188 -20.1685C153.95 -19.8535 181.374 -18.5809 207.387 -11.4644C222.263 -7.39513 240.257 -0.761115 247.42 14.5495C252.29 24.9553 250.506 36.2267 248.781 47.1269C248.649 47.9626 248.517 48.7954 248.389 49.6249L248.208 50.7863C246.586 61.1677 245.185 70.1335 257.028 73.4426C269.158 76.8323 283.553 74.8394 296.254 73.0815C299.165 72.6784 301.915 72.2981 304.623 71.9776C307.421 71.6469 310.622 71.1204 314.011 70.5627C326.527 68.5034 342.104 65.9407 352.195 70.8168C355.089 72.2157 356.744 74.1715 357.565 76.4402C357.609 76.4083 357.652 76.3757 357.696 76.3441L358.057 76.8451C357.96 76.9151 357.865 76.9873 357.768 77.0576C359.328 82.4392 356.571 89.3953 354.363 94.9559L354.097 95.6291C351.579 101.991 348.529 108.137 344.993 114.049L345.118 114.237C344.981 114.329 344.846 114.424 344.708 114.516C338.84 124.236 331.641 133.315 323.216 141.633C323.289 141.604 323.362 141.573 323.435 141.544L323.66 142.12C323.114 142.333 322.571 142.553 322.029 142.777C315.882 148.714 309.109 154.256 301.754 159.362L301.779 159.713C301.575 159.727 301.374 159.75 301.172 159.768C292.943 165.432 283.995 170.551 274.393 175.072C274.274 175.172 274.154 175.272 274.036 175.372C273.415 175.895 272.792 176.419 272.168 176.943C259.984 188.153 247.143 198.759 232.32 205.155C232.317 205.156 232.314 205.157 232.312 205.158L232.189 204.875L232.28 205.17C232.278 205.17 232.276 205.171 232.274 205.171L232.256 205.176C230.675 205.646 229.086 205.989 227.493 206.224C227.094 206.307 226.746 206.356 226.489 206.358C213.338 207.913 199.889 202.003 187.628 194.227C181.338 193.594 175.268 192.286 169.439 190.462C169.352 190.502 169.266 190.537 169.18 190.579L169.066 190.344C143.671 182.288 122.863 164.528 108.393 150.604C107.298 149.549 106.021 148.399 104.67 147.181C96.4819 139.803 85.2677 129.697 90.8094 119.979ZM92.7095 133.498C94.8497 133.638 96.9715 133.933 99.0764 134.356C96.2332 129.418 94.9709 124.169 97.3936 119.062C97.5084 118.819 97.6314 118.581 97.7615 118.345C95.7849 118.508 93.7993 118.887 91.8096 119.507C91.6544 119.758 91.4995 120.015 91.3455 120.285C88.8478 124.665 89.9774 129.185 92.7095 133.498ZM171.541 188.94C171.999 188.782 172.456 188.639 172.915 188.511C161.622 184.907 150.434 178.908 139.417 170.556C138.148 170.224 136.867 169.918 135.573 169.641C147.643 178.782 159.582 185.189 171.541 188.94ZM199.896 199.503C200.054 199.57 200.215 199.641 200.375 199.712C200.653 199.835 200.935 199.958 201.207 200.065C200.776 199.867 200.346 199.667 199.917 199.464C199.91 199.477 199.903 199.49 199.896 199.503ZM347.137 76.4796C339.619 70.949 324.511 72.6142 313.48 73.8303C311.237 74.0775 309.119 74.3112 307.347 74.447C304.69 74.6507 301.308 75.0893 297.41 75.6028C297.485 76.1576 297.549 76.7151 297.599 77.2767C301.027 77.1731 304.494 77.0844 307.922 77.0542C309.309 77.0416 310.958 76.9783 312.704 76.9105C321.98 76.552 335.998 76.0097 342.015 82.114C343.407 83.5261 344.261 85.1791 344.729 86.9683C346.687 85.1762 348.681 83.4328 350.718 81.7487C350.173 79.7142 349.064 77.897 347.137 76.4796ZM236.494 61.5286C236.453 61.2663 236.42 61.0029 236.382 60.74C233.441 63.2732 230.867 65.6651 230.073 66.91C230.377 67.3625 230.696 67.7976 231.037 68.2076C235.625 73.721 244.588 75.6639 252.643 76.5756C244.158 74.4951 237.827 70.055 236.494 61.5286ZM109.543 88.6653C109.096 95.0233 108.373 102.336 105.443 108.651C104.48 110.728 102.995 112.502 101.559 114.217C100.595 115.369 99.6721 116.478 98.9028 117.654C100.904 117.572 102.892 117.701 104.865 118.013C106.162 114.909 107.652 112.043 109.1 109.259C112.04 103.606 114.817 98.2662 115.979 91.2948C116.083 90.6694 116.173 90.047 116.258 89.4253C114.037 88.817 111.775 88.2727 109.595 87.755C109.578 88.0583 109.565 88.3608 109.543 88.6653ZM107.18 136.638C109.432 137.447 111.662 138.383 113.868 139.436C111.014 133.76 109.673 127.666 111.345 121.38C111.429 121.064 111.523 120.752 111.613 120.437C109.515 119.668 107.391 119.079 105.249 118.707C105.116 119.032 104.983 119.355 104.855 119.685C102.631 125.423 104.122 131.226 107.18 136.638ZM121.384 153.748C127.427 159.902 133.535 165.313 139.695 169.991C141.44 170.45 143.16 170.963 144.864 171.514C138.763 167.388 132.941 162.558 127.437 156.991C122.661 152.161 117.649 146.517 114.349 140.357C112.145 139.278 109.917 138.31 107.668 137.473C111.222 143.408 116.554 148.836 120.782 153.136L121.384 153.748ZM188.683 193.667C188.743 193.688 188.805 193.706 188.865 193.727C188.886 193.729 188.907 193.731 188.927 193.733C188.493 193.492 188.061 193.252 187.631 193.011C187.506 192.997 187.382 192.984 187.257 192.969C187.682 193.245 188.154 193.482 188.683 193.667ZM341.576 82.547C335.75 76.6374 321.896 77.1731 312.728 77.5278C310.977 77.5955 309.324 77.6594 307.928 77.6717C304.515 77.7019 301.062 77.7904 297.647 77.8934C297.726 78.9876 297.761 80.0933 297.755 81.2088C300.653 81.3079 303.49 81.4387 306.284 81.6375C307.286 81.7086 308.457 81.7661 309.746 81.8289C318.247 82.2445 331.092 82.8727 335.851 88.9727C336.913 90.334 337.585 91.8671 337.966 93.4933C340.007 91.4262 342.086 89.4068 344.21 87.4459C343.787 85.6261 342.963 83.9538 341.576 82.547ZM260.071 77.8478C254.919 77.4677 248.301 76.9777 242.364 75.3203C256.562 80.2706 272.741 80.6274 288.495 80.9697C291.449 81.0336 294.321 81.098 297.138 81.1892C297.143 80.0858 297.109 78.9924 297.03 77.9115C295.688 77.9525 294.353 77.9954 293.03 78.0385C282.59 78.3774 271.795 78.7284 261.196 77.9314L260.071 77.8478ZM224.576 54.2929C223.528 50.4786 222.445 46.5343 220.761 43.4216C215.432 33.5712 206.63 25.4208 194.598 19.1962C193.46 18.6077 192.292 18.0414 191.111 17.4852C191.157 21.0854 191.7 24.5075 192.74 27.7643C194.349 28.7347 195.901 29.7322 197.369 30.758C204.764 35.9251 209.547 43.3865 214.173 50.6019C218.613 57.5286 222.839 64.1155 229.133 68.7309C229.124 68.4071 229.146 67.9943 229.203 67.4221C229.217 67.29 229.274 67.131 229.364 66.9522C227.081 63.4002 225.809 58.7823 224.576 54.2929ZM103.4 42.9557C106.203 43.9276 109.022 44.8505 111.819 45.7644C113.896 46.4433 116.001 47.1326 118.098 47.8416C118.027 47.6587 117.958 47.4773 117.887 47.2939C114.793 39.2499 111.593 30.9321 114.592 24.4857C116.156 21.1247 119.253 18.6215 123.992 16.8422C120.587 15.7154 117.186 14.6117 113.847 13.5302C108.578 11.8241 103.192 10.0712 97.8323 8.24001C97.4997 8.34124 97.1745 8.44668 96.8623 8.55845C93.2731 9.8433 91.0145 11.839 90.1413 14.5012C87.6774 22.0177 96.3637 33.5824 102.112 41.2349C102.563 41.8352 102.992 42.4074 103.4 42.9557ZM190.409 193.847C190.918 193.883 191.431 193.912 191.945 193.939C191.946 193.899 191.951 193.857 191.952 193.817C191.083 193.633 190.222 193.428 189.372 193.197C189.317 193.192 189.262 193.188 189.208 193.183C189.607 193.405 190.008 193.626 190.409 193.847ZM207.855 201.638C207.861 201.634 207.868 201.63 207.873 201.626C207.353 201.618 206.838 201.602 206.33 201.57C206.681 201.707 207.032 201.84 207.383 201.971C207.517 201.871 207.67 201.763 207.855 201.638ZM208.201 202.15C208.162 202.176 208.122 202.204 208.082 202.231C208.895 202.525 209.71 202.8 210.527 203.061C211.834 203.147 213.256 203.1 214.76 202.946C213.926 202.488 213.103 201.993 212.294 201.455C211.16 201.555 210.041 201.615 208.945 201.629C208.673 201.828 208.418 202.003 208.201 202.15ZM258.122 186.954C256.845 187.559 255.387 188.206 253.861 188.858C253.812 188.902 253.763 188.945 253.714 188.989C254.838 188.965 255.452 188.987 255.794 189.04C256.576 188.355 257.352 187.659 258.122 186.954ZM270.079 177.225C269.705 177.404 269.326 177.58 268.944 177.755C268.958 177.788 268.973 177.821 268.985 177.854C269.363 177.644 269.727 177.435 270.079 177.225ZM335.365 89.3522C330.78 83.4756 317.594 82.8309 309.716 82.4459C308.422 82.3824 307.246 82.325 306.24 82.2533C303.462 82.0556 300.638 81.9253 297.752 81.8269C297.724 83.3753 297.616 84.9418 297.445 86.5189C300.04 86.8744 302.63 87.2507 305.184 87.6818C305.972 87.8149 306.852 87.9487 307.799 88.0932C314.957 89.1846 325.774 90.8335 329.577 96.8718C330.322 98.0545 330.793 99.3886 331.066 100.804C333.153 98.4978 335.278 96.2331 337.446 94.0212C337.102 92.33 336.449 90.7417 335.365 89.3522ZM231.856 71.2318C231.885 71.2852 231.915 71.3409 231.944 71.3974C233.151 72.1242 234.415 72.8144 235.756 73.458C251.364 80.9453 268.769 83.0203 285.601 85.0271C289.302 85.4681 293.072 85.9252 296.834 86.4342C297.002 84.8778 297.107 83.3332 297.136 81.8068C294.316 81.7153 291.44 81.6511 288.482 81.5869C268.727 81.158 248.305 80.7103 231.856 71.2318ZM213.653 50.9352C209.06 43.7703 204.31 36.3613 197.016 31.264C195.749 30.3783 194.419 29.5133 193.045 28.6686C193.378 29.6182 193.749 30.5557 194.169 31.4776C194.845 32.9636 195.467 34.4273 196.068 35.8832C197.656 37.0422 199.161 38.2383 200.555 39.459C205.527 43.8121 209.474 48.6808 213.291 53.3893C218.51 59.8272 223.496 65.9677 230.753 70.6525C230.694 70.5779 230.637 70.5163 230.58 70.4566C223.168 65.7575 218.536 58.5527 213.653 50.9352ZM118.464 47.0724C118.596 47.4163 118.726 47.7575 118.858 48.1002C121.667 49.0591 124.451 50.0567 127.116 51.1239C128.851 51.8187 130.456 52.5338 131.953 53.279C131.946 39.9776 133.522 30.1328 147.476 25.0726C143.872 23.6371 140.067 22.3273 136.134 20.9757C134.953 20.5701 133.763 20.1613 132.568 19.7448C130.035 18.8628 127.476 18.0013 124.917 17.1509C119.921 18.892 116.722 21.3734 115.151 24.7468C112.263 30.9554 115.415 39.1487 118.464 47.0724ZM132.58 55.1594C132.69 66.5151 131.313 78.427 128.139 93.4596C129.953 94.5825 131.676 95.9077 133.313 97.3934C133.835 94.3959 134.311 91.2534 134.805 87.9829C136.224 78.5889 137.728 68.6694 140.675 59.7599C138.326 57.7046 135.691 55.9199 132.574 54.2919C132.576 54.5803 132.577 54.8678 132.58 55.1594ZM122.511 144.151C125.038 145.692 127.532 147.344 129.991 149.075C127.3 142.672 126.756 136.217 127.314 129.426C124.722 127.459 122.052 125.648 119.32 124.08C119.183 124.833 119.062 125.585 118.964 126.337C118.215 132.099 119.408 138.054 122.511 144.151ZM134.479 159.904C140.369 165.775 146.496 170.558 152.767 174.406C153.418 174.671 154.067 174.943 154.715 175.219C149.791 172.067 145.126 168.378 140.743 164.131C135.887 159.424 132.606 154.807 130.476 150.172C128.041 148.436 125.573 146.773 123.073 145.219C125.693 150.035 129.496 154.938 134.479 159.904ZM210.936 198.528C211.252 198.503 211.569 198.476 211.886 198.447C213.246 197.517 214.742 196.747 216.288 196.076C216.258 196.035 216.228 195.992 216.198 195.951C213.111 196.391 210.148 196.661 207.313 196.757C207.343 196.784 207.372 196.813 207.402 196.84C208.576 197.408 209.754 197.975 210.936 198.528ZM259.359 183.077C259.298 183.063 259.245 183.049 259.182 183.034C258.445 183.329 257.692 183.624 256.928 183.918C256.551 184.42 256.169 184.916 255.785 185.408C256.433 185.134 257.062 184.865 257.667 184.601C258.23 184.093 258.794 183.585 259.359 183.077ZM259.485 183.794C259.812 183.647 260.131 183.501 260.442 183.357C260.328 183.324 260.208 183.29 260.084 183.257C259.884 183.436 259.685 183.615 259.485 183.794ZM329.055 97.2011C325.403 91.4013 314.753 89.778 307.706 88.7038C306.756 88.559 305.873 88.4241 305.082 88.2906C302.539 87.8614 299.959 87.4864 297.374 87.1324C297.128 89.2069 296.774 91.299 296.332 93.3945C299.07 94.0494 301.801 94.7456 304.501 95.5062C315.754 98.6774 321.68 102.875 323.312 109.711C325.681 106.893 328.088 104.109 330.544 101.381C330.304 99.8636 329.836 98.4413 329.055 97.2011ZM130.993 149.783C133.448 151.538 135.867 153.365 138.251 155.229C135.402 148.916 134.573 142.429 134.813 135.675C132.586 133.665 130.28 131.709 127.906 129.878C127.39 136.76 128.049 143.296 130.993 149.783ZM223.102 204.9C223.599 204.797 224.144 204.684 224.712 204.564C224.439 204.428 224.169 204.282 223.907 204.124C223.376 203.99 222.845 203.845 222.314 203.69C221.309 203.902 220.303 204.103 219.293 204.294C220.25 204.624 221.221 204.889 222.204 205.086C222.485 205.027 222.782 204.966 223.102 204.9ZM257.115 182.631C256.91 182.596 256.7 182.561 256.484 182.526C256.082 182.673 255.687 182.826 255.283 182.971L255.118 183.03C254.909 183.105 254.706 183.172 254.497 183.246C253.99 183.742 253.484 184.244 252.98 184.753C254.131 184.331 255.323 183.884 256.533 183.418C256.728 183.157 256.922 182.894 257.115 182.631ZM257.61 182.999C257.771 182.936 257.932 182.873 258.093 182.809C257.995 182.79 257.892 182.771 257.791 182.753C257.731 182.835 257.671 182.917 257.61 182.999ZM304.333 96.101C301.647 95.344 298.929 94.6509 296.202 93.9987C295.648 96.5341 294.973 99.072 294.22 101.588C296.683 102.434 299.131 103.325 301.542 104.288C310.242 107.765 314.979 112.036 316.356 118.191C318.472 115.559 320.611 112.938 322.782 110.345C321.33 103.446 315.534 99.2573 304.333 96.101ZM139.363 156.101C141.593 157.863 143.79 159.65 145.955 161.435C143.177 155.609 142.305 149.433 142.446 143.007C140.216 140.753 137.869 138.462 135.423 136.229C135.242 143.104 136.217 149.696 139.363 156.101ZM147.943 167.81C152.093 171.947 156.52 175.329 161.132 178.076C158.793 176.452 156.521 174.636 154.331 172.605C150.959 169.477 148.463 166.204 146.647 162.807C144.482 161.015 142.284 159.216 140.053 157.439C141.951 160.944 144.517 164.396 147.943 167.81ZM184.445 190.114C184.409 189.99 184.389 189.859 184.359 189.733C183.306 189.43 182.269 189.103 181.254 188.742C181.521 188.889 181.793 189.041 182.062 189.191C182.842 189.519 183.636 189.828 184.445 190.114ZM224.201 203.558C224.945 203.743 225.688 203.899 226.43 204.037C226.841 203.896 227.262 203.747 227.703 203.584C227.277 203.333 226.849 203.062 226.419 202.768C225.581 202.97 224.736 203.163 223.888 203.352C223.993 203.419 224.094 203.493 224.201 203.558ZM247.16 189.977C246.632 190.019 246.092 190.064 245.537 190.113C245.102 190.274 244.673 190.433 244.251 190.587C243.98 191.211 243.697 191.824 243.402 192.428C244.139 192.148 244.917 191.849 245.722 191.533C246.199 191.016 246.678 190.497 247.16 189.977ZM247.042 191.014C248.055 190.611 249.094 190.192 250.13 189.767C249.48 189.806 248.79 189.853 248.067 189.907C247.724 190.276 247.382 190.645 247.042 191.014ZM267.895 177.23C267.796 177.113 267.688 176.996 267.565 176.878C267.448 176.925 267.331 176.971 267.214 177.018C266.747 177.411 266.282 177.808 265.817 178.207C266.459 177.938 267.103 177.672 267.739 177.398C267.791 177.342 267.843 177.286 267.895 177.23ZM301.313 104.862C298.919 103.905 296.488 103.021 294.042 102.179C293.238 104.819 292.354 107.432 291.439 109.988C300.055 114.297 306.932 119.811 308.939 127.535C311.219 124.639 313.514 121.733 315.835 118.839C314.628 112.608 309.995 108.332 301.313 104.862ZM147.151 162.424C148.541 163.574 149.918 164.722 151.279 165.857C152.229 166.649 153.162 167.426 154.089 168.197C151.451 163.035 150.558 157.344 150.595 151.486C150.211 151.082 149.824 150.674 149.429 150.259C147.442 148.164 145.312 145.92 143.058 143.628C142.985 150.208 144.021 156.512 147.151 162.424ZM204.351 193.893C207.5 193.706 210.733 193.38 214.041 192.934C214.035 192.927 214.03 192.919 214.025 192.911C213.998 192.894 213.971 192.878 213.944 192.861C210.574 193.306 207.338 193.553 204.233 193.611C204.207 193.638 204.181 193.665 204.155 193.692C204.22 193.759 204.286 193.826 204.351 193.893ZM226.967 199.687C227.032 199.663 227.095 199.641 227.16 199.617C228.398 199.167 229.688 198.74 230.999 198.324C230.976 198.011 230.956 197.698 230.937 197.385C229.522 197.826 228.056 198.261 226.56 198.676C226.689 199.02 226.825 199.357 226.967 199.687ZM235.177 202.24C234.89 202.353 234.602 202.465 234.311 202.571C234.139 202.835 233.976 203.079 233.819 203.308C233.848 203.298 233.876 203.286 233.904 203.276C234.323 202.951 234.746 202.607 235.177 202.24ZM241.031 195.494C241.418 194.863 241.785 194.21 242.14 193.546C241.38 193.832 240.813 194.042 240.509 194.151L240.433 194.178C240.07 194.307 239.691 194.44 239.304 194.577C238.94 195.154 238.584 195.723 238.237 196.282C238.882 196.123 239.533 195.972 240.184 195.822C240.458 195.718 240.74 195.609 241.031 195.494ZM308.34 137.244C309.021 134.23 309.072 131.48 308.604 128.958C308.319 129.322 308.033 129.685 307.747 130.048C305.907 132.388 304.037 134.761 302.158 137.13C302.644 139.368 302.702 141.778 302.24 144.383C301.923 146.169 301.401 147.861 300.721 149.475C302.271 148.054 303.828 146.637 305.393 145.223C306.692 142.751 307.695 140.098 308.34 137.244ZM291.225 110.578C290.085 113.733 288.905 116.8 287.78 119.717C287.685 119.965 287.594 120.204 287.499 120.449C294.522 124.558 300.195 129.669 301.974 136.367C303.752 134.125 305.521 131.88 307.263 129.666C307.655 129.167 308.047 128.668 308.44 128.169C306.635 120.425 299.826 114.897 291.225 110.578ZM155.395 169.277C157.681 171.17 159.908 172.982 162.093 174.701C159.729 170.385 158.917 165.461 158.942 160.43C156.905 158.16 154.952 156.025 153.106 154.113C152.493 153.478 151.863 152.819 151.219 152.142C151.259 158.2 152.344 164.05 155.395 169.277ZM193.486 190.543C193.973 190.726 194.459 190.916 194.945 191.11C196.988 191.316 199.089 191.431 201.246 191.458C201.068 191.257 200.892 191.055 200.716 190.853C198.26 190.822 195.871 190.674 193.538 190.429C193.521 190.467 193.503 190.505 193.486 190.543ZM232.002 201.981C232.292 201.878 232.58 201.777 232.868 201.677C232.93 201.448 232.984 201.215 233.043 200.984C232.665 201.096 232.296 201.211 231.914 201.321C231.941 201.541 231.971 201.761 232.002 201.981ZM233.218 200.287C233.333 199.799 233.44 199.306 233.54 198.81C232.936 199.014 232.326 199.219 231.711 199.422C231.749 199.848 231.793 200.272 231.841 200.697C232.307 200.564 232.76 200.425 233.218 200.287ZM241.16 190.557C239.61 190.733 238.029 190.936 236.463 191.164C236.008 191.308 235.554 191.451 235.104 191.59C235.068 192.122 235.025 192.651 234.976 193.178C236.922 192.54 238.844 191.876 240.735 191.202C240.876 190.986 241.018 190.771 241.16 190.557ZM241.709 190.853C242.18 190.683 242.648 190.514 243.11 190.346C242.732 190.385 242.351 190.425 241.968 190.467C241.881 190.596 241.795 190.724 241.709 190.853ZM243.772 186.804C243.623 186.85 243.474 186.896 243.325 186.942C240.738 187.883 238.019 188.805 235.205 189.671C235.191 190.024 235.177 190.376 235.157 190.727C235.57 190.662 235.981 190.6 236.388 190.541C238.39 189.904 240.429 189.215 242.507 188.472C242.538 188.46 242.57 188.449 242.601 188.437C242.991 187.88 243.382 187.335 243.772 186.804ZM283.094 132.062C281.756 135.564 280.333 139.215 278.81 142.942C283.198 145.906 286.765 149.348 288.206 153.354C290.172 150.931 292.048 148.623 293.928 146.346C294.173 146.05 294.418 145.744 294.663 145.447C293.28 140.062 288.779 135.704 283.094 132.062ZM169.823 182.141C170.251 182.305 170.679 182.464 171.108 182.62C170.998 182.489 170.887 182.36 170.781 182.226C169.267 181.062 167.789 179.915 166.354 178.801C165.797 178.368 165.248 177.942 164.706 177.522C165.75 178.798 166.973 180.001 168.417 181.109C168.878 181.464 169.349 181.805 169.823 182.141ZM257.274 179.806C257.726 179.404 258.18 179.008 258.635 178.624C257.613 178.968 256.605 179.304 255.619 179.631C255.112 179.821 254.611 180.013 254.1 180.2C254.277 180.369 254.448 180.556 254.605 180.781C254.714 180.746 254.826 180.709 254.935 180.674C255.71 180.391 256.489 180.102 257.274 179.806ZM278.571 143.525C277.108 147.088 275.554 150.715 273.896 154.345C277.239 156.595 280.006 159.096 281.333 161.774C283.512 159.135 285.648 156.505 287.745 153.922C286.458 149.936 282.946 146.496 278.571 143.525ZM171.195 181.765C171.896 182.304 172.606 182.846 173.323 183.391C174.439 183.761 175.558 184.108 176.68 184.429C176.119 182.773 175.897 180.954 175.9 179.093C172.808 175.892 169.841 172.645 167.016 169.493C167.262 173.748 168.382 178.157 171.195 181.765ZM281.567 165.163C281.571 164.411 281.433 163.668 281.175 162.936C279.813 164.58 278.434 166.227 277.037 167.869C278.535 167.156 280.036 166.416 281.532 165.647C281.546 165.486 281.566 165.326 281.567 165.163ZM177.425 184.634C179.224 185.131 181.03 185.566 182.839 185.943C180.685 183.928 178.581 181.849 176.532 179.744C176.582 181.467 176.849 183.13 177.425 184.634ZM206.722 191.341C207.841 191.28 208.97 191.204 210.117 191.099C209.239 190.87 208.373 190.778 207.524 190.879C207.428 190.891 207.336 190.915 207.241 190.931C207.067 191.066 206.894 191.202 206.722 191.341ZM212.781 191.489C212.921 191.561 213.061 191.634 213.201 191.71C213.144 191.625 213.087 191.539 213.029 191.454C212.947 191.466 212.864 191.478 212.781 191.489ZM211.609 190.944C211.946 190.908 212.279 190.879 212.618 190.839C212.49 190.647 212.361 190.458 212.234 190.266C211.536 190.343 210.844 190.409 210.155 190.471C210.638 190.591 211.123 190.747 211.609 190.944ZM213.303 190.75C213.87 190.68 214.437 190.609 215.011 190.528C217.707 190.094 220.393 189.573 223.056 188.986C223.008 188.85 222.961 188.715 222.913 188.579C219.497 189.274 216.167 189.807 212.924 190.185C213.049 190.374 213.177 190.561 213.303 190.75ZM188.772 174.257C189.573 175.337 190.408 176.483 191.28 177.682C192.81 179.785 194.47 182.065 196.25 184.383C198.472 181.043 201.114 178.521 204.068 176.461C201.66 172.025 199.364 167.531 197.101 163.092C193.632 166.219 190.904 169.893 188.772 174.257ZM246.791 180.959C246.815 180.96 246.84 180.961 246.865 180.963C246.868 180.952 246.871 180.941 246.873 180.931C246.846 180.94 246.818 180.95 246.791 180.959ZM244.936 181.598C245.055 181.561 245.175 181.521 245.295 181.483C245.288 181.482 245.28 181.482 245.273 181.482C245.161 181.52 245.049 181.56 244.936 181.598ZM222.084 186.237C221.803 185.445 221.524 184.653 221.244 183.862C218.431 184.838 215.531 185.977 212.743 187.435C215.892 187.15 219.011 186.744 222.084 186.237ZM222.702 186.133C226.755 185.444 230.726 184.58 234.586 183.588C234.561 182.916 234.528 182.242 234.489 181.567C230.165 181.828 225.567 182.427 221.828 183.664C222.12 184.487 222.41 185.311 222.702 186.133ZM235.198 183.43C237.613 182.799 239.982 182.119 242.299 181.402C240.193 181.372 237.71 181.392 235.104 181.532C235.142 182.165 235.174 182.798 235.198 183.43ZM247.565 180.707C247.759 180.634 247.95 180.568 248.144 180.494C248.164 180.487 248.187 180.479 248.207 180.471C247.994 180.544 247.782 180.619 247.57 180.691L247.565 180.707ZM231.052 185.953L231.059 186.056C231.634 185.902 232.217 185.732 232.797 185.569C232.213 185.704 231.633 185.826 231.052 185.953ZM198.17 187.817C197.533 187.031 196.91 186.244 196.3 185.459C196.098 185.783 195.892 186.101 195.697 186.44L195.366 187.015C195.25 187.215 195.13 187.423 195.009 187.634C196.063 187.711 197.117 187.773 198.17 187.817ZM198.987 187.846C202.863 187.976 206.721 187.889 210.537 187.615C208.374 184.165 206.332 180.61 204.368 177.011C201.44 179.061 198.828 181.569 196.646 184.897C197.405 185.878 198.185 186.864 198.987 187.846ZM211.227 187.552C214.415 185.751 217.787 184.408 221.038 183.279C219.565 179.124 218.096 174.967 216.626 170.81C212.384 172.521 208.407 174.272 204.875 176.652C206.894 180.352 208.995 184.008 211.227 187.552ZM221.622 183.081C225.07 181.944 229.627 181.293 234.451 181.002C234.186 176.888 233.667 172.732 233.011 168.631C226.897 168.493 221.229 169.046 217.202 170.588C218.675 174.753 220.146 178.918 221.622 183.081ZM235.068 180.967C238.033 180.808 241.082 180.78 244.025 180.856C244.943 180.562 245.853 180.261 246.752 179.956C246.888 179.909 247.021 179.862 247.155 179.815C247.932 176.661 248.537 173.459 249.024 170.333C244.075 169.419 238.723 168.802 233.639 168.649C234.289 172.731 234.803 176.868 235.068 180.967ZM247.851 179.572C248.67 179.282 249.47 178.992 250.249 178.703L253.052 177.671C255.158 176.896 257.337 176.094 259.56 175.258C260.573 174.87 261.602 174.471 262.644 174.061C259.259 172.675 254.68 171.407 249.632 170.444C249.162 173.451 248.585 176.531 247.851 179.572ZM248.573 181.059C248.666 181.065 248.758 181.071 248.851 181.078C248.936 181.007 249.02 180.942 249.104 180.876C248.927 180.937 248.75 180.999 248.573 181.059ZM247.339 181.585C247.317 181.672 247.291 181.757 247.268 181.843C247.471 181.768 247.673 181.692 247.882 181.616C247.704 181.605 247.52 181.596 247.339 181.585ZM231.095 186.658C231.102 186.772 231.106 186.888 231.113 187.002C232.297 186.682 233.473 186.353 234.64 186.015C234.639 185.9 234.639 185.785 234.637 185.669C233.449 186.015 232.266 186.347 231.095 186.658ZM230.169 187.256L230.291 186.868C228 187.463 225.744 187.989 223.522 188.451C223.569 188.584 223.616 188.717 223.663 188.85C225.851 188.358 228.023 187.825 230.169 187.256ZM230.504 186.199L230.546 186.064C228.396 186.527 226.256 186.945 224.134 187.301C223.817 187.365 223.5 187.429 223.181 187.49C223.23 187.627 223.278 187.764 223.327 187.9C225.677 187.407 228.068 186.843 230.504 186.199ZM194.326 187.584C194.498 187.282 194.669 186.987 194.832 186.705L195.162 186.133C195.4 185.719 195.648 185.328 195.897 184.936C194.063 182.553 192.354 180.206 190.781 178.045C189.981 176.945 189.211 175.886 188.47 174.885C188.22 175.418 187.974 175.957 187.74 176.511C186.786 178.778 185.12 182.738 184.788 186.327C187.964 186.914 191.148 187.329 194.326 187.584ZM204.577 176.104C208.143 173.71 212.149 171.949 216.42 170.228C214.597 165.073 212.77 159.92 210.949 154.765C205.595 156.935 201.196 159.523 197.579 162.671C199.852 167.129 202.157 171.645 204.577 176.104ZM216.996 170.006C221.118 168.426 226.796 167.839 232.903 167.955C232.069 162.858 231.037 157.858 230.036 153.139C222.933 152.475 216.438 152.769 211.854 154.41C211.742 154.45 211.633 154.493 211.522 154.535C213.345 159.693 215.172 164.849 216.996 170.006ZM233.531 167.971C238.686 168.109 244.106 168.732 249.126 169.671C249.799 165.221 250.243 160.955 250.613 157.243C244.145 155.299 237.177 153.853 230.679 153.197C231.677 157.906 232.703 162.89 233.531 167.971ZM249.733 169.783C254.931 170.788 259.65 172.125 263.138 173.595C264.903 170.691 266.576 167.702 268.167 164.669C267.5 164.257 266.792 163.844 266.034 163.432C261.906 161.186 256.758 159.123 251.216 157.423C250.846 161.122 250.403 165.362 249.733 169.783ZM263.871 173.575C267.089 172.293 270.419 170.9 273.786 169.376C272.729 167.96 271.015 166.486 268.692 164.997C267.164 167.909 265.559 170.779 263.871 173.575ZM273.403 171.133C273.45 171.079 273.497 171.026 273.544 170.972C273.411 171.034 273.284 171.098 273.151 171.16C273.229 171.152 273.307 171.147 273.385 171.141C273.39 171.138 273.397 171.135 273.403 171.133ZM259.851 176.22C258.852 176.584 257.863 176.942 256.89 177.292C255.846 177.693 254.807 178.088 253.773 178.475C254.437 178.244 255.112 178.011 255.796 177.774C256.05 177.687 256.311 177.596 256.569 177.507C257.676 177.082 258.766 176.652 259.851 176.22ZM250.3 180.764C250.959 180.538 251.637 180.308 252.331 180.075C251.712 180.064 251.03 180.309 250.3 180.764ZM249.797 181.752C249.36 181.906 248.919 182.061 248.476 182.216C248.194 182.483 247.907 182.771 247.618 183.078C248.72 182.694 249.921 182.296 251.221 181.874C250.759 181.831 250.283 181.791 249.797 181.752ZM247.166 182.67L247.024 182.719C247.011 182.767 246.998 182.815 246.985 182.862C247.045 182.797 247.106 182.734 247.166 182.67ZM243.9 183.08C244.778 182.766 245.666 182.437 246.555 182.105C246.592 181.972 246.63 181.838 246.666 181.704C246.633 181.715 246.6 181.724 246.567 181.735C242.718 183.149 238.945 184.401 235.253 185.489C235.255 185.604 235.255 185.719 235.256 185.835C237.44 185.195 239.591 184.53 241.697 183.848C242.429 183.596 243.161 183.345 243.9 183.08ZM222.717 188.027C222.667 187.887 222.618 187.746 222.568 187.606C219.161 188.248 215.708 188.766 212.234 189.125C212.351 189.306 212.466 189.487 212.584 189.667C215.865 189.289 219.246 188.738 222.717 188.027ZM184 186.179C184.061 186.191 184.122 186.202 184.183 186.213C184.536 182.534 186.208 178.559 187.172 176.271C187.452 175.605 187.744 174.955 188.048 174.318C187.935 174.166 187.82 174.01 187.708 173.861C185.095 170.381 182.526 166.841 179.988 163.278C179.736 163.977 179.492 164.682 179.265 165.398C178.274 168.517 176.584 173.842 176.524 178.849C178.943 181.346 181.436 183.812 184 186.179ZM188.201 173.491C188.253 173.56 188.307 173.634 188.36 173.704C190.532 169.338 193.3 165.656 196.809 162.521C195.598 160.144 194.391 157.779 193.177 155.444C191.783 152.762 190.397 150.061 189.02 147.352C185.415 151.637 182.413 156.797 180.244 162.575C182.859 166.251 185.507 169.903 188.201 173.491ZM193.724 155.159C194.915 157.449 196.099 159.769 197.288 162.1C200.938 158.951 205.367 156.359 210.743 154.182C210.269 152.84 209.793 151.499 209.319 150.157L206.36 141.783C205.693 139.895 205.027 138.006 204.36 136.118C198.816 138.199 193.727 141.911 189.453 146.84C190.867 149.626 192.291 152.403 193.724 155.159ZM206.942 141.577L209.901 149.952C210.373 151.288 210.846 152.623 211.318 153.958C215.951 152.201 222.603 151.854 229.905 152.52C229.798 152.017 229.692 151.516 229.586 151.02C229.128 148.872 228.683 146.782 228.272 144.768C227.636 141.652 226.953 138.548 226.241 135.453C218.778 133.944 211.337 133.666 204.94 135.907C205.608 137.797 206.274 139.687 206.942 141.577ZM228.876 144.645C229.287 146.657 229.732 148.745 230.189 150.892C230.308 151.451 230.428 152.015 230.549 152.583C237.107 153.23 244.142 154.673 250.675 156.625C250.685 156.525 250.695 156.422 250.705 156.323L250.72 156.172C251.131 152.038 251.408 147.986 251.557 144.016C244.473 140.963 235.698 137.455 226.906 135.593C227.596 138.601 228.258 141.617 228.876 144.645ZM251.335 156.233L251.319 156.385C251.306 156.521 251.291 156.665 251.278 156.803C256.911 158.52 262.142 160.612 266.328 162.889C267.082 163.299 267.788 163.71 268.454 164.121C270.096 160.965 271.647 157.762 273.119 154.559C267.924 151.157 261.429 148.322 256.943 146.365L255.676 145.812C254.568 145.325 253.392 144.81 252.167 144.279C252.016 148.185 251.739 152.171 251.335 156.233ZM268.979 164.452C271.434 166.023 273.242 167.595 274.353 169.119C274.795 168.918 275.238 168.713 275.681 168.507C277.454 166.44 279.195 164.361 280.91 162.287C279.712 159.645 276.98 157.155 273.64 154.904C272.169 158.102 270.619 161.299 268.979 164.452ZM270.87 172.203L270.803 172.234C270.831 172.222 270.859 172.21 270.887 172.199C270.881 172.2 270.876 172.201 270.87 172.203ZM263.468 175.728C263.271 175.859 263.075 175.995 262.879 176.131C263.628 175.824 264.369 175.513 265.109 175.202C265.081 175.187 265.049 175.172 265.021 175.157C264.5 175.35 263.983 175.54 263.468 175.728ZM260.571 177.059C260.812 176.872 261.054 176.688 261.296 176.508C259.742 177.06 258.229 177.586 256.773 178.09C255.572 178.551 254.364 179.009 253.137 179.461C253.068 179.486 253.001 179.51 252.932 179.535C253.099 179.577 253.262 179.635 253.417 179.712C253.933 179.54 254.453 179.367 254.981 179.193C255.112 179.149 255.247 179.104 255.379 179.06C257.134 178.405 258.865 177.738 260.571 177.059ZM253.431 180.445C252.69 180.715 251.946 180.985 251.187 181.257C251.697 181.302 252.196 181.35 252.684 181.401C252.911 181.328 253.136 181.255 253.368 181.18C253.569 181.116 253.776 181.049 253.98 180.983C253.807 180.764 253.625 180.585 253.431 180.445ZM245.773 183.743C245.886 183.7 246.005 183.657 246.121 183.614C246.186 183.397 246.254 183.181 246.318 182.963C244.865 183.459 243.384 183.951 241.883 184.437C239.641 185.21 237.433 185.926 235.262 186.582C235.262 186.754 235.264 186.926 235.263 187.098C237.871 186.365 240.402 185.6 242.838 184.824C243.809 184.475 244.787 184.115 245.773 183.743ZM234.643 187.269C234.644 187.103 234.647 186.937 234.647 186.771C233.471 187.121 232.308 187.451 231.153 187.766C231.161 187.911 231.169 188.055 231.176 188.199C232.345 187.897 233.501 187.586 234.643 187.269ZM230.56 188.065L230.459 188.381C230.497 188.372 230.535 188.362 230.572 188.353C230.567 188.257 230.564 188.161 230.56 188.065ZM229.902 188.098C227.869 188.635 225.869 189.118 223.903 189.547C223.941 189.661 223.98 189.775 224.018 189.896C225.956 189.479 227.872 189.032 229.755 188.56L229.902 188.098ZM223.297 189.68C220.591 190.257 217.95 190.726 215.372 191.095C214.818 191.186 214.264 191.274 213.709 191.357C213.79 191.477 213.87 191.598 213.951 191.718C217.146 191.255 220.309 190.683 223.411 190.028C223.373 189.908 223.335 189.791 223.297 189.68ZM211.674 191.644C209.657 191.911 207.639 192.124 205.624 192.28C205.478 192.411 205.333 192.544 205.189 192.679C207.577 192.505 209.959 192.258 212.326 191.944C212.108 191.835 211.891 191.738 211.674 191.644ZM211.896 189.743C211.777 189.56 211.66 189.377 211.542 189.193C210.832 189.262 210.122 189.327 209.411 189.382C209.078 189.6 208.749 189.825 208.423 190.056C209.569 189.971 210.725 189.87 211.896 189.743ZM175.917 178.221C176.102 173.311 177.713 168.244 178.677 165.211C178.95 164.35 179.243 163.503 179.551 162.666C176.496 158.368 173.491 154.037 170.53 149.724C168.92 154.136 167.772 158.566 167.263 162.748C167.043 164.552 166.918 166.511 166.974 168.521C169.815 171.697 172.801 174.98 175.917 178.221ZM179.815 161.973C182.031 156.196 185.072 151.037 188.718 146.754C185.975 141.348 183.27 135.912 180.607 130.525C176.699 136.047 173.251 142.498 170.795 149.021C173.755 153.336 176.761 157.671 179.815 161.973ZM189.154 146.249C193.464 141.333 198.582 137.625 204.154 135.535C201.801 128.872 199.448 122.208 197.095 115.545C191.787 117.588 186.05 122.989 181.016 129.961C183.688 135.366 186.402 140.822 189.154 146.249ZM197.674 115.329C200.026 121.995 202.38 128.66 204.734 135.325C211.172 133.069 218.624 133.313 226.092 134.792C224.656 128.602 223.074 122.457 221.394 116.354C213.154 113.772 204.959 112.786 197.674 115.329ZM226.756 134.932C235.606 136.77 244.431 140.279 251.576 143.352C251.729 138.821 251.711 134.4 251.522 130.094C249.945 129.299 248.316 128.459 246.64 127.596C239.065 123.695 230.569 119.32 222.094 116.574C223.762 122.65 225.331 128.768 226.756 134.932ZM252.186 143.614C253.494 144.18 254.746 144.729 255.924 145.246L257.189 145.799C261.676 147.756 268.142 150.578 273.374 154.002C275.032 150.369 276.586 146.737 278.048 143.172C272.658 139.612 266.085 136.739 260.776 134.42C259.072 133.675 257.462 132.972 256.107 132.337C254.833 131.739 253.508 131.087 252.152 130.408C252.331 134.7 252.345 139.102 252.186 143.614ZM281.616 162.403C281.982 163.306 282.188 164.227 282.184 165.166C282.183 165.216 282.177 165.264 282.176 165.314C283.33 164.714 284.481 164.097 285.626 163.461C286.152 162.968 286.675 162.479 287.198 161.992C287.736 160.823 288.097 159.597 288.227 158.305C288.355 157.038 288.244 155.821 287.95 154.648C285.878 157.201 283.768 159.797 281.616 162.403ZM287.928 162.155C288.841 161.624 289.748 161.081 290.648 160.525C291.328 159.69 291.947 158.823 292.488 157.919C291.901 158.465 291.313 159.01 290.727 159.554L288.441 161.677C288.271 161.835 288.099 161.996 287.928 162.155ZM265.783 174.871C265.8 174.881 265.816 174.89 265.833 174.9C266.143 174.768 266.452 174.636 266.76 174.503C266.433 174.628 266.108 174.749 265.783 174.871ZM260.29 178.063C259.842 178.421 259.394 178.79 258.948 179.168C259.225 179.061 259.503 178.952 259.781 178.844C259.958 178.582 260.135 178.32 260.31 178.056C260.304 178.058 260.297 178.06 260.29 178.063ZM254.35 181.545C254.319 181.556 254.287 181.567 254.256 181.579C254.297 181.584 254.339 181.589 254.379 181.594C254.37 181.576 254.36 181.561 254.35 181.545ZM244.483 185.859C244.808 185.434 245.132 185.022 245.455 184.626C244.657 184.888 243.848 185.151 243.026 185.413C240.378 186.365 237.788 187.229 235.25 188.016C235.247 188.216 235.247 188.417 235.242 188.617C237.822 187.93 240.448 187.176 243.12 186.359C243.577 186.192 244.034 186.026 244.483 185.859ZM234.619 188.78C234.625 188.59 234.627 188.4 234.631 188.211C233.484 188.561 232.353 188.889 231.229 189.206C231.235 189.352 231.239 189.494 231.244 189.639C232.36 189.367 233.487 189.077 234.619 188.78ZM204.632 192.353C204.478 192.363 204.324 192.374 204.17 192.384C204.02 192.506 203.871 192.639 203.724 192.776C203.888 192.767 204.052 192.76 204.216 192.749C204.353 192.615 204.492 192.484 204.632 192.353ZM204.395 191.436C204.79 191.168 205.197 190.952 205.611 190.774C205.126 190.794 204.638 190.819 204.158 190.832C203.275 190.856 202.405 190.858 201.537 190.855C201.718 191.06 201.902 191.263 202.084 191.467C202.847 191.468 203.618 191.457 204.395 191.436ZM207.264 190.135C207.566 189.908 207.871 189.685 208.179 189.469C205.631 189.638 203.077 189.715 200.528 189.689C200.705 189.897 200.884 190.104 201.063 190.311C203.087 190.327 205.156 190.265 207.264 190.135ZM199.997 189.062C199.997 189.062 199.997 189.062 199.997 189.062V189.062ZM163.377 175.71C163.464 175.777 163.553 175.849 163.639 175.917C164.642 176.69 165.674 177.491 166.733 178.313C167.669 179.04 168.624 179.781 169.595 180.532C167.61 177.324 166.522 173.371 166.365 168.767C165.183 167.444 164.026 166.141 162.896 164.867C161.741 163.567 160.611 162.294 159.502 161.056C159.532 166.316 160.542 171.372 163.377 175.71ZM163.357 164.457C164.334 165.559 165.333 166.684 166.35 167.822C166.339 166.181 166.431 164.468 166.65 162.673C167.181 158.321 168.401 153.704 170.11 149.113C168.266 146.423 166.438 143.742 164.626 141.084C164.06 140.254 163.485 139.411 162.915 138.575C162.705 139.502 162.498 140.428 162.298 141.351C161.019 147.268 159.603 153.824 159.506 160.134C160.759 161.532 162.044 162.979 163.357 164.457ZM165.136 140.736C166.868 143.277 168.615 145.839 170.377 148.409C172.883 141.877 176.37 135.434 180.308 129.921C179.152 127.58 178.001 125.248 176.861 122.935C175.099 119.36 173.322 115.755 171.527 112.136C167.767 119.737 165.168 128.763 163.101 137.753C163.78 138.749 164.463 139.749 165.136 140.736ZM177.414 122.661C178.508 124.879 179.611 127.115 180.719 129.359C185.789 122.398 191.553 117.012 196.889 114.962C194.445 108.038 191.974 101.037 189.488 94.0004C189.468 94.0077 189.447 94.0144 189.427 94.0217C181.628 96.8135 176.053 103.26 171.876 111.451C173.74 115.208 175.586 118.951 177.414 122.661ZM197.468 114.747C204.792 112.189 212.977 113.119 221.199 115.647C219.493 109.483 217.687 103.364 215.818 97.2896C206.679 93.404 197.67 91.3505 190.075 93.8095C192.558 100.838 195.027 107.831 197.468 114.747ZM221.899 115.863C230.547 118.615 239.208 123.074 246.922 127.047C248.49 127.855 250.013 128.638 251.495 129.388C251.279 124.92 250.871 120.583 250.286 116.373C247.115 114.609 243.719 112.573 240.195 110.457C232.845 106.046 224.668 101.142 216.563 97.6115C218.418 103.65 220.207 109.734 221.899 115.863ZM252.125 129.705C253.585 130.438 255.005 131.138 256.369 131.777C257.716 132.409 259.322 133.111 261.022 133.854C266.325 136.17 272.869 139.032 278.285 142.594C279.806 138.87 281.226 135.223 282.561 131.726C276.595 127.997 269.437 125.024 263.259 122.46C260.319 121.24 257.541 120.087 255.34 119.024C253.945 118.349 252.476 117.576 250.959 116.742C251.528 120.938 251.92 125.258 252.125 129.705ZM294.405 146.74C292.446 149.111 290.494 151.514 288.438 154.048C288.839 155.422 288.993 156.86 288.841 158.367C288.75 159.273 288.555 160.148 288.27 160.993L290.307 159.102C291.325 158.156 292.345 157.209 293.367 156.261C294.105 154.711 294.643 153.069 294.923 151.315C295.21 149.515 295.164 147.814 294.844 146.201C294.698 146.379 294.551 146.562 294.405 146.74ZM295.533 151.413C295.321 152.74 294.967 154.003 294.498 155.213C296.176 153.658 297.86 152.102 299.552 150.546C300.521 148.586 301.237 146.502 301.633 144.275C302.044 141.957 302.024 139.796 301.647 137.775C299.553 140.41 297.447 143.026 295.343 145.591C295.768 147.413 295.862 149.346 295.533 151.413ZM293.882 156.625C293.384 157.657 292.797 158.646 292.129 159.595C292.521 159.345 292.913 159.092 293.302 158.836C295.413 156.815 297.234 154.617 298.653 152.215C297.057 153.685 295.466 155.157 293.882 156.625ZM277.792 168.923C277.473 169.137 277.154 169.351 276.837 169.57C278.293 168.877 279.729 168.148 281.138 167.386C281.155 167.341 281.168 167.294 281.184 167.249C280.063 167.823 278.933 168.383 277.792 168.923ZM274.362 171.714C273.992 171.891 273.623 172.067 273.251 172.242C273.158 172.347 273.067 172.452 272.974 172.557C273.6 172.281 274.22 171.998 274.835 171.71C274.678 171.706 274.52 171.712 274.362 171.714ZM270.551 173.484C269.753 173.846 268.952 174.206 268.142 174.561C268.852 174.284 269.558 174.002 270.263 173.713C270.359 173.636 270.455 173.56 270.551 173.484ZM263.899 176.806C263.013 177.123 262.134 177.429 261.26 177.731C261.104 177.97 260.949 178.21 260.791 178.448C262.692 177.696 264.618 176.904 266.561 176.073C266.486 176.022 266.401 175.97 266.322 175.919C265.513 176.221 264.704 176.517 263.899 176.806ZM255.146 181.255C255.077 181.28 255.009 181.305 254.94 181.33C255 181.442 255.056 181.567 255.112 181.689C255.146 181.694 255.178 181.698 255.211 181.702C255.465 181.461 255.72 181.222 255.975 180.986C255.694 181.077 255.422 181.165 255.146 181.255ZM254.628 182.257C254.09 182.186 253.529 182.117 252.942 182.052C250.923 182.773 248.794 183.514 246.57 184.257C246.471 184.581 246.372 184.903 246.268 185.224C247.654 184.749 249.255 184.231 251.026 183.659C252.066 183.323 253.154 182.971 254.27 182.606C254.389 182.489 254.508 182.372 254.628 182.257ZM239.726 190.093C240.385 190.012 241.014 189.939 241.618 189.872C241.747 189.682 241.875 189.491 242.004 189.303C241.239 189.573 240.48 189.837 239.726 190.093ZM234.916 193.841C234.858 194.4 234.792 194.955 234.719 195.507C236.211 195.005 237.612 194.518 238.894 194.066C239.316 193.397 239.746 192.724 240.18 192.053C238.449 192.663 236.691 193.263 234.916 193.841ZM234.617 196.193C234.564 196.559 234.51 196.926 234.449 197.289C235.413 197.017 236.387 196.755 237.373 196.504C237.699 195.978 238.03 195.444 238.367 194.906C237.199 195.315 235.942 195.749 234.617 196.193ZM231.109 199.619C229.91 200.01 228.695 200.394 227.475 200.761C227.649 201.1 227.832 201.421 228.024 201.727C229.11 201.449 230.183 201.162 231.24 200.864C231.192 200.45 231.148 200.035 231.109 199.619ZM231.053 198.988C231.052 198.978 231.051 198.969 231.05 198.959C230.216 199.225 229.397 199.497 228.592 199.775C229.418 199.518 230.239 199.255 231.053 198.988ZM231.655 198.79C231.988 198.68 232.32 198.57 232.65 198.459C232.315 198.56 231.985 198.664 231.653 198.767C231.654 198.775 231.655 198.783 231.655 198.79ZM233.787 197.48C233.849 197.125 233.907 196.769 233.962 196.411C233.176 196.671 232.369 196.933 231.542 197.194C231.561 197.507 231.582 197.82 231.605 198.132C232.324 197.909 233.051 197.692 233.787 197.48ZM234.062 195.727C234.139 195.172 234.208 194.614 234.269 194.052C233.327 194.355 232.38 194.652 231.43 194.94C231.451 195.479 231.477 196.018 231.506 196.558C232.38 196.281 233.234 196.003 234.062 195.727ZM234.339 193.387C234.391 192.854 234.436 192.319 234.474 191.781C233.422 192.1 232.38 192.404 231.349 192.692C231.366 193.23 231.385 193.769 231.405 194.31C232.388 194.011 233.366 193.702 234.339 193.387ZM231.608 191.975C231.513 191.994 231.421 192.013 231.327 192.031L231.328 192.054C231.421 192.028 231.514 192.002 231.608 191.975ZM234.532 190.826C234.551 190.504 234.567 190.183 234.58 189.86C233.494 190.189 232.396 190.51 231.285 190.82C231.292 191.013 231.299 191.208 231.305 191.401C232.373 191.192 233.456 191 234.532 190.826ZM230.632 189.785C230.627 189.649 230.621 189.512 230.615 189.376C230.443 189.423 230.271 189.471 230.099 189.518L229.964 189.944C230.187 189.891 230.409 189.839 230.632 189.785ZM203.182 192.438C203.114 192.441 203.047 192.445 202.979 192.449C203.008 192.481 203.038 192.512 203.068 192.544C203.106 192.507 203.144 192.474 203.182 192.438ZM196.851 191.897C196.883 191.911 196.915 191.925 196.946 191.938C197.17 191.942 197.394 191.941 197.617 191.943C197.362 191.928 197.105 191.915 196.851 191.897ZM200.234 190.296C200.057 190.089 199.88 189.884 199.705 189.676C197.814 189.64 195.925 189.549 194.044 189.391C193.955 189.563 193.869 189.736 193.783 189.91C195.883 190.125 198.032 190.256 200.234 190.296ZM199.031 189.039C197.468 188.983 195.917 188.887 194.374 188.767C194.37 188.775 194.366 188.782 194.362 188.79C195.914 188.915 197.472 188.997 199.031 189.039ZM193.705 188.708C193.008 188.649 192.31 188.594 191.617 188.522C192.307 188.601 192.997 188.675 193.69 188.736C193.695 188.727 193.7 188.717 193.705 188.708ZM184.743 188.054C184.743 188.061 184.743 188.068 184.743 188.075C184.918 188.105 185.093 188.133 185.267 188.166C185.264 188.164 185.261 188.161 185.259 188.158C185.087 188.124 184.915 188.09 184.743 188.054ZM184.13 187.973C184.13 187.956 184.13 187.939 184.129 187.922C182.166 187.497 180.219 186.99 178.295 186.394C178.3 186.402 178.305 186.409 178.31 186.417C179.655 186.913 181.029 187.359 182.429 187.76C182.996 187.816 183.563 187.886 184.13 187.973ZM179.819 187.538C179.887 187.565 179.956 187.592 180.025 187.619C180.035 187.619 180.045 187.619 180.055 187.619C179.975 187.593 179.898 187.564 179.819 187.538ZM162.981 176.184C160.855 174.538 158.692 172.792 156.48 170.973C157.848 172.965 159.524 174.859 161.582 176.621C163.239 178.039 164.968 179.337 166.758 180.535C165.245 179.196 164 177.736 162.981 176.184ZM153.551 153.684C155.266 155.461 157.074 157.432 158.953 159.521C159.107 153.202 160.495 146.769 161.695 141.221C161.935 140.11 162.184 138.994 162.44 137.878C159.89 134.143 157.304 130.366 154.691 126.604C154.604 127.056 154.518 127.504 154.433 127.946L154.014 130.122C152.687 136.987 151.291 144.242 151.221 151.249C152.02 152.089 152.798 152.905 153.551 153.684ZM162.628 137.06C164.722 128.05 167.365 119.033 171.185 111.449C168.502 106.042 165.779 100.607 163.005 95.193C159.005 105.053 156.674 116.362 154.855 125.756C157.475 129.524 160.07 133.312 162.628 137.06ZM171.535 110.766C175.753 102.64 181.377 96.2474 189.218 93.4404C189.239 93.4328 189.261 93.4257 189.283 93.418C186.885 86.6293 184.474 79.8103 182.059 72.9856C173.287 76.2671 167.435 84.5718 163.312 94.4444C166.102 99.8793 168.838 105.336 171.535 110.766ZM189.87 93.2269C197.503 90.7488 206.481 92.7166 215.581 96.5228C213.974 91.3201 212.326 86.1503 210.658 81.0139C201.789 75.3604 191.542 69.7887 182.641 72.7807C185.058 79.6104 187.47 86.4338 189.87 93.2269ZM216.323 96.8332C224.624 100.393 232.997 105.417 240.512 109.928C243.882 111.951 247.135 113.902 250.181 115.609C249.589 111.522 248.819 107.564 247.877 103.734C237.318 98.1906 227.204 91.7561 216.225 84.6285C215.639 84.2481 215.042 83.8581 214.436 83.4618C213.472 82.832 212.484 82.1866 211.477 81.539C213.119 86.6046 214.742 91.7026 216.323 96.8332ZM250.855 115.981C252.507 116.896 254.101 117.739 255.609 118.468C257.794 119.523 260.563 120.673 263.495 121.889C269.665 124.45 276.797 127.414 282.786 131.138C283.636 128.905 284.451 126.737 285.235 124.651L285.337 124.381C285.781 123.199 286.252 121.971 286.732 120.723C279.989 116.847 272.038 113.866 265.135 111.28C260.684 109.612 256.481 108.037 253.299 106.488C251.723 105.721 250.162 104.934 248.611 104.127C249.532 107.951 250.278 111.906 250.855 115.981ZM285.914 124.599L285.813 124.869C285.016 126.99 284.186 129.197 283.32 131.469C289.023 135.101 293.598 139.451 295.157 144.841C297.268 142.263 299.38 139.636 301.48 136.991C299.889 130.282 294.283 125.157 287.273 121.037C286.806 122.251 286.348 123.447 285.914 124.599ZM300.054 150.923C299.08 152.873 297.857 154.697 296.429 156.405C299.585 153.585 302.318 150.447 304.433 146.925C302.967 148.256 301.507 149.588 300.054 150.923ZM281.951 166.857C281.943 166.886 281.937 166.915 281.929 166.944C281.991 166.886 282.052 166.829 282.113 166.77C282.058 166.799 282.005 166.829 281.951 166.857ZM271.989 173.663C271.986 173.665 271.984 173.668 271.982 173.67C272.049 173.639 272.116 173.61 272.183 173.578C272.118 173.606 272.054 173.635 271.989 173.663ZM270.66 174.22C270.63 174.232 270.601 174.244 270.572 174.256C270.518 174.3 270.463 174.343 270.408 174.387C270.465 174.361 270.521 174.336 270.578 174.31C270.605 174.28 270.633 174.25 270.66 174.22ZM268.627 175.035C268.097 175.244 267.566 175.449 267.034 175.65C267.101 175.698 267.157 175.745 267.22 175.792C267.567 175.643 267.914 175.49 268.262 175.338C268.384 175.237 268.505 175.136 268.627 175.035ZM257.405 180.516C256.932 180.941 256.46 181.372 255.989 181.813C256.143 181.836 256.294 181.859 256.443 181.883C256.997 181.68 257.55 181.475 258.102 181.268C258.404 180.843 258.704 180.415 259.001 179.985C258.464 180.165 257.932 180.343 257.405 180.516ZM244.777 186.496C244.392 187.005 244.007 187.532 243.623 188.071C243.975 187.946 244.357 187.811 244.768 187.666C244.931 187.231 245.091 186.795 245.244 186.353C245.087 186.402 244.933 186.447 244.777 186.496ZM243.343 188.827C243.23 188.868 243.119 188.906 243.005 188.947C242.813 189.224 242.621 189.503 242.429 189.784C242.986 189.725 243.517 189.671 244 189.624C244.165 189.228 244.322 188.825 244.479 188.422C244.069 188.567 243.683 188.704 243.343 188.827ZM241.92 191.433C241.797 191.478 241.674 191.521 241.551 191.566C241.415 191.614 241.279 191.662 241.143 191.711C240.701 192.385 240.265 193.061 239.838 193.733C239.967 193.688 240.101 193.64 240.227 193.596C240.911 193.355 241.704 193.065 242.567 192.743C242.875 192.134 243.167 191.51 243.451 190.879C242.929 191.069 242.415 191.255 241.92 191.433ZM234.216 198.58C234.118 199.084 234.011 199.585 233.898 200.083C234.428 199.92 234.95 199.755 235.468 199.587C235.779 199.086 236.099 198.567 236.428 198.034C236.484 197.943 236.541 197.85 236.598 197.758C235.82 198.029 235.025 198.304 234.216 198.58ZM233.731 200.778C233.677 200.998 233.622 201.218 233.564 201.436C233.884 201.327 234.2 201.219 234.513 201.114C234.659 200.883 234.808 200.646 234.961 200.401C234.556 200.529 234.143 200.653 233.731 200.778ZM233.373 202.154C233.362 202.192 233.351 202.229 233.34 202.266C233.528 202.201 233.716 202.133 233.904 202.065C233.93 202.025 233.955 201.987 233.981 201.946C233.778 202.016 233.577 202.084 233.373 202.154ZM233.128 202.991C233.088 203.124 233.052 203.261 233.01 203.394C233.115 203.246 233.225 203.086 233.338 202.918C233.268 202.942 233.198 202.967 233.128 202.991ZM234.874 201.699C235.059 201.626 235.247 201.557 235.431 201.481C235.533 201.439 235.634 201.398 235.735 201.357C235.467 201.445 235.192 201.538 234.918 201.629C234.903 201.652 234.888 201.677 234.874 201.699ZM232.417 203.223C232.345 203.246 232.273 203.269 232.201 203.292C232.222 203.415 232.249 203.538 232.272 203.661C232.319 203.515 232.371 203.371 232.417 203.223ZM232.627 202.505L232.656 202.406C232.469 202.472 232.283 202.536 232.095 202.603C232.099 202.627 232.102 202.652 232.106 202.676C232.28 202.621 232.453 202.563 232.627 202.505ZM231.504 202.818C231.268 202.903 231.033 202.987 230.797 203.074C231.034 203.006 231.272 202.932 231.51 202.859C231.508 202.845 231.506 202.832 231.504 202.818ZM231.41 202.195C231.376 201.959 231.342 201.723 231.312 201.486C230.35 201.757 229.374 202.019 228.387 202.273C228.596 202.564 228.82 202.828 229.052 203.073C229.835 202.771 230.624 202.478 231.41 202.195ZM227.749 202.433C227.575 202.477 227.402 202.521 227.228 202.564C227.615 202.817 228 203.051 228.382 203.263C228.16 203.007 227.95 202.728 227.749 202.433ZM227.391 201.888C227.209 201.586 227.036 201.27 226.871 200.942C226.413 201.078 225.953 201.21 225.495 201.34C225.846 201.607 226.196 201.86 226.543 202.102C226.828 202.033 227.108 201.959 227.391 201.888ZM230.897 196.75C230.867 196.207 230.841 195.664 230.819 195.123C229.165 195.617 227.502 196.084 225.834 196.516C225.996 197.047 226.169 197.574 226.352 198.093C227.907 197.663 229.429 197.209 230.897 196.75ZM230.795 194.493C230.774 193.948 230.754 193.405 230.737 192.863C228.855 193.381 227.008 193.848 225.198 194.264C225.344 194.813 225.498 195.371 225.661 195.932C227.379 195.489 229.092 195.005 230.795 194.493ZM230.716 192.226L230.714 192.154C228.602 192.585 226.655 193.074 225.029 193.625C225.032 193.638 225.036 193.651 225.039 193.664C226.893 193.239 228.785 192.759 230.716 192.226ZM224.813 192.791C224.832 192.868 224.854 192.948 224.874 193.026C226.588 192.448 228.596 191.95 230.693 191.522C230.687 191.344 230.681 191.165 230.675 190.986C228.722 191.521 226.738 192.019 224.73 192.472C224.758 192.58 224.784 192.681 224.813 192.791ZM228.415 190.947C227.114 191.243 225.827 191.517 224.549 191.778C224.558 191.809 224.566 191.843 224.575 191.874C225.865 191.583 227.146 191.274 228.415 190.947ZM229.314 190.099L229.272 190.085L229.39 189.714C227.676 190.174 225.991 190.59 224.332 190.969C224.351 191.037 224.37 191.112 224.389 191.181C226.01 190.851 227.655 190.486 229.314 190.099ZM223.73 191.107C220.682 191.787 217.73 192.324 214.868 192.728C214.909 192.756 214.95 192.781 214.991 192.809C217.862 192.403 220.788 191.909 223.784 191.31C223.767 191.243 223.748 191.172 223.73 191.107ZM202.499 192.842C202.389 192.724 202.278 192.607 202.169 192.487C200.904 192.54 199.642 192.567 198.385 192.567C198.639 192.68 198.893 192.793 199.148 192.908C199.351 192.919 199.553 192.93 199.757 192.939C200.671 192.92 201.585 192.886 202.499 192.842ZM196.815 192.554C195.988 192.539 195.163 192.506 194.34 192.465C195.323 192.597 196.328 192.699 197.345 192.784C197.168 192.707 196.992 192.63 196.815 192.554ZM193.155 191.783C193.843 191.828 194.534 191.863 195.226 191.889C195.081 191.83 194.937 191.773 194.792 191.715C194.22 191.656 193.652 191.59 193.088 191.517C193.057 191.601 193.024 191.686 192.996 191.77C193.049 191.773 193.102 191.779 193.155 191.783ZM193.129 189.846C193.212 189.673 193.296 189.5 193.382 189.329C191.057 189.116 188.743 188.808 186.45 188.389C186.459 188.397 186.468 188.405 186.478 188.413C187.813 188.708 189.149 189.076 190.484 189.5C191.356 189.632 192.238 189.746 193.129 189.846ZM182.686 188.409C182.459 188.384 182.232 188.364 182.004 188.344C182.735 188.595 183.474 188.832 184.225 189.052C184.212 188.969 184.206 188.883 184.196 188.799C183.69 188.673 183.184 188.547 182.686 188.409ZM163.105 178.654C162.454 178.147 161.811 177.629 161.182 177.09C158.514 174.806 156.463 172.316 154.905 169.673C153.584 168.579 152.249 167.47 150.884 166.331C149.93 165.536 148.969 164.734 148.001 163.93C149.7 166.77 151.907 169.516 154.75 172.152C157.42 174.628 160.214 176.783 163.105 178.654ZM149.876 149.834C150.122 150.092 150.364 150.348 150.606 150.602C150.755 143.75 152.116 136.694 153.408 130.005L153.827 127.829C153.95 127.191 154.074 126.546 154.2 125.895C153.057 124.252 151.91 122.615 150.762 120.989C149.636 119.397 148.505 117.727 147.308 115.958C147.209 115.812 147.109 115.664 147.009 115.517C146.825 116.57 146.641 117.602 146.456 118.605L145.963 121.266C144.59 128.64 143.253 135.851 143.077 142.768C145.488 145.211 147.762 147.606 149.876 149.834ZM147.819 115.612C149.014 117.378 150.143 119.045 151.265 120.633C152.3 122.097 153.333 123.573 154.363 125.052C156.271 115.221 158.609 104.03 162.581 94.3733C160.091 89.5262 157.558 84.7018 154.979 79.9319C151.383 90.1647 149.391 101.722 147.692 111.587C147.513 112.624 147.337 113.641 147.162 114.643C147.382 114.967 147.602 115.291 147.819 115.612ZM162.892 93.6297C167.04 83.8367 172.932 75.7304 181.853 72.4032C179.745 66.4476 177.635 60.4947 175.529 54.56C165.513 58.2094 159.365 67.8052 155.258 79.1491C157.85 83.9304 160.391 88.7689 162.892 93.6297ZM182.435 72.1985C191.383 69.1835 201.519 74.5065 210.36 80.0943C208.734 75.0967 207.094 70.1301 205.462 65.1958C196.547 58.1328 186.11 51.0678 176.113 54.3617C178.219 60.2945 180.328 66.2454 182.435 72.1985ZM211.177 80.6133C212.404 81.3979 213.606 82.1825 214.773 82.9451C215.379 83.3407 215.975 83.7303 216.561 84.1107C227.356 91.1189 237.314 97.4521 247.675 102.926C247.3 101.448 246.909 99.9824 246.481 98.544C245.929 96.6861 245.281 94.6343 244.502 92.4908C230.915 85.2408 219.258 76.3428 210.361 69.1456L209.102 68.1253C208.202 67.3953 207.282 66.6488 206.344 65.8981C207.956 70.7725 209.573 75.6774 211.177 80.6133ZM247.073 98.3683C247.555 99.9907 247.993 101.646 248.409 103.319C250.116 104.212 251.832 105.087 253.569 105.933C256.724 107.468 260.914 109.039 265.351 110.701C272.253 113.287 280.191 116.262 286.959 120.135C287.041 119.92 287.121 119.711 287.205 119.495C288.335 116.561 289.523 113.476 290.668 110.302C283.283 106.669 274.653 103.894 266.759 101.358C260.389 99.3107 254.373 97.3774 250.009 95.2856C248.418 94.5227 246.857 93.7264 245.313 92.9148C245.996 94.8418 246.572 96.683 247.073 98.3683ZM250.276 94.729C254.601 96.8026 260.598 98.7294 266.947 100.77C274.844 103.307 283.469 106.08 290.881 109.712C291.788 107.18 292.662 104.592 293.457 101.979C287.899 100.087 282.262 98.4327 276.75 96.8215C266.386 93.7924 255.669 90.6602 245.633 85.9503C244.194 85.2751 242.771 84.561 241.356 83.8205C242.833 86.5854 244.022 89.389 245 92.0549C246.73 92.9743 248.486 93.8707 250.276 94.729ZM309.121 128.302C309.708 131.042 309.693 134.054 308.941 137.381C308.403 139.762 307.61 141.998 306.62 144.113C308.121 142.764 309.632 141.422 311.149 140.084C312.805 137.067 314.125 133.823 315.022 130.318C316.069 126.223 316.407 122.711 315.972 119.656C313.667 122.534 311.387 125.423 309.121 128.302ZM305.883 145.613C304.422 148.372 302.593 150.902 300.487 153.24C304.275 149.84 307.581 146.038 310.186 141.755C308.743 143.035 307.311 144.323 305.883 145.613ZM275.59 171.131C275.721 171.141 275.851 171.148 275.982 171.162C277.104 170.616 278.202 170.047 279.272 169.456C279.389 169.345 279.507 169.234 279.625 169.123C278.298 169.802 276.953 170.471 275.59 171.131ZM265.466 177.694C264.607 178.02 263.749 178.336 262.895 178.641C261.913 178.993 260.941 179.328 259.977 179.656C259.696 180.069 259.412 180.48 259.126 180.888C260.759 180.267 262.38 179.632 263.981 178.979C264.474 178.548 264.969 178.12 265.466 177.694ZM245.968 186.126C245.823 186.555 245.672 186.98 245.519 187.403C245.754 187.321 245.992 187.238 246.242 187.151C247.75 186.625 249.605 185.977 251.634 185.243C252.134 184.73 252.637 184.222 253.14 183.719C250.717 184.567 248.319 185.377 245.968 186.126ZM250.278 186.381C249.015 186.833 247.734 187.285 246.446 187.734C246.022 187.882 245.627 188.02 245.245 188.153C245.066 188.627 244.879 189.095 244.688 189.56C244.936 189.537 245.182 189.514 245.429 189.492C246.585 189.062 247.711 188.637 248.799 188.217C249.42 187.555 250.045 186.894 250.673 186.239C250.541 186.286 250.41 186.334 250.278 186.381ZM247.693 189.307C247.725 189.304 247.757 189.302 247.789 189.299C247.803 189.284 247.818 189.269 247.832 189.254C247.785 189.272 247.739 189.289 247.693 189.307ZM243.015 193.214C242.681 193.866 242.328 194.5 241.964 195.124C242.192 195.032 242.424 194.939 242.658 194.844C243.367 194.084 244.085 193.309 244.808 192.525C244.156 192.778 243.557 193.007 243.015 193.214ZM240.392 196.406C239.966 196.568 239.56 196.719 239.184 196.854C239.084 196.89 238.984 196.925 238.887 196.959L238.588 197.063C238.238 197.186 237.882 197.31 237.523 197.436C237.33 197.748 237.139 198.057 236.953 198.358C236.755 198.68 236.566 198.985 236.378 199.29C236.613 199.212 236.857 199.137 237.089 199.058C237.764 198.828 238.416 198.604 239.045 198.385C239.539 197.747 240.004 197.078 240.454 196.392C240.434 196.397 240.413 196.401 240.392 196.406ZM238.305 199.292C237.965 199.409 237.632 199.526 237.288 199.643C236.826 199.8 236.346 199.95 235.873 200.104C235.727 200.34 235.577 200.582 235.438 200.806C236.147 200.571 236.832 200.349 237.489 200.141C237.686 199.952 237.885 199.758 238.085 199.563C238.16 199.475 238.23 199.381 238.305 199.292ZM231.006 204.359C231.155 204.316 231.301 204.277 231.451 204.231C231.545 204.194 231.638 204.158 231.731 204.12C231.69 203.906 231.646 203.692 231.608 203.477C231.086 203.636 230.567 203.782 230.052 203.923C230.344 204.109 230.655 204.246 230.98 204.353C230.988 204.355 230.998 204.356 231.006 204.359ZM228.904 204.227C228.746 204.268 228.588 204.309 228.433 204.347C228.748 204.386 229.063 204.42 229.377 204.448C229.22 204.38 229.062 204.303 228.904 204.227ZM225.741 202.29C225.413 202.053 225.083 201.803 224.753 201.547C223.939 201.771 223.129 201.983 222.324 202.181C222.605 202.424 222.893 202.655 223.186 202.873C224.043 202.686 224.894 202.491 225.741 202.29ZM226.388 199.895C226.24 199.551 226.1 199.198 225.966 198.84C225.071 199.083 224.166 199.318 223.254 199.542C223.675 199.894 224.091 200.236 224.506 200.568C225.115 200.352 225.745 200.127 226.388 199.895ZM225.755 198.258C225.57 197.735 225.399 197.203 225.237 196.669C223.838 197.023 222.437 197.351 221.037 197.646C221.04 197.649 221.042 197.651 221.045 197.654C221.591 198.125 222.133 198.591 222.671 199.048C223.707 198.798 224.737 198.535 225.755 198.258ZM225.062 196.084C224.896 195.516 224.743 194.953 224.595 194.398C222.973 194.762 221.38 195.085 219.818 195.367C219.478 195.487 219.138 195.609 218.798 195.735C219.351 196.198 219.903 196.669 220.452 197.143C221.988 196.827 223.526 196.472 225.062 196.084ZM219.663 194.766C220.736 194.388 221.804 194.038 222.84 193.698C223.332 193.537 223.809 193.378 224.286 193.219C224.263 193.129 224.238 193.035 224.215 192.945C224.185 192.828 224.157 192.721 224.127 192.607C221.655 193.151 219.152 193.622 216.639 193.999C217.085 194.34 217.529 194.693 217.974 195.055C218.533 194.964 219.096 194.868 219.663 194.766ZM223.972 192.009C223.963 191.975 223.954 191.941 223.945 191.906C221.156 192.465 218.421 192.941 215.74 193.333C215.808 193.382 215.877 193.429 215.946 193.479C218.639 193.09 221.322 192.593 223.972 192.009ZM214.438 193.505C211.828 193.862 209.268 194.14 206.756 194.337C209.342 194.24 211.949 194.008 214.553 193.67C214.515 193.615 214.477 193.56 214.438 193.505ZM203.064 193.955C203.142 193.869 203.221 193.785 203.3 193.7C203.274 193.674 203.251 193.647 203.225 193.621C203.12 193.621 203.013 193.623 202.908 193.624C202.808 193.738 202.708 193.852 202.61 193.974C202.761 193.967 202.912 193.963 203.064 193.955ZM192.364 191.719C192.395 191.624 192.431 191.53 192.465 191.435C191.445 191.294 190.436 191.136 189.446 190.948C189.677 191.14 189.908 191.33 190.139 191.519C190.881 191.596 191.622 191.662 192.364 191.719ZM192.388 190.8C191.534 190.492 190.68 190.204 189.826 189.942C189.159 189.836 188.497 189.722 187.841 189.598C188.042 189.77 188.243 189.941 188.445 190.112C189.733 190.382 191.048 190.61 192.388 190.8ZM186.613 189.356C186.013 189.231 185.42 189.095 184.829 188.954C184.844 189.053 184.864 189.15 184.882 189.248C185.632 189.457 186.392 189.649 187.161 189.829C186.978 189.672 186.795 189.515 186.613 189.356ZM142.469 142.154C142.71 135.383 144.017 128.344 145.356 121.153L145.849 118.493C146.07 117.293 146.29 116.052 146.512 114.783C144.48 111.788 142.343 108.69 140.049 105.741C139.853 106.894 139.654 108.035 139.443 109.151C139.163 110.637 138.879 112.106 138.598 113.56C137.119 121.205 135.719 128.456 135.446 135.414C137.891 137.63 140.237 139.907 142.469 142.154ZM146.663 113.908C146.802 113.109 146.942 112.302 147.084 111.481C148.817 101.419 150.852 89.6074 154.584 79.1973C154.488 79.0213 154.395 78.8433 154.299 78.6674C152 74.44 149.898 70.8599 147.722 67.7637C144.477 77.0594 142.877 87.523 141.369 97.4074C140.973 100 140.589 102.493 140.187 104.913C142.488 107.835 144.629 110.916 146.663 113.908ZM154.841 78.3723C154.849 78.3877 154.857 78.4036 154.866 78.419C159.026 67.1534 165.243 57.6479 175.322 53.9776C174.75 52.3659 174.177 50.7518 173.606 49.1435C172.661 46.4853 171.521 44.1199 170.211 41.994C158.503 46.5107 152.005 55.8899 147.979 67.052C150.256 70.2492 152.443 73.9621 154.841 78.3723ZM174.187 48.9366C174.76 50.5479 175.333 52.1645 175.907 53.7796C185.925 50.4682 196.236 57.1716 205.111 64.1341C204.222 61.4447 203.39 58.8338 202.585 56.3084C202.122 54.8573 201.663 53.4236 201.202 51.9954C192.786 43.9235 183.689 37.2195 171.246 41.5955C171.179 41.6194 171.116 41.6416 171.049 41.6657C170.954 41.6996 170.866 41.74 170.771 41.7743C172.094 43.9123 173.244 46.2823 174.187 48.9366ZM203.173 56.1213C203.989 58.6821 204.833 61.3304 205.736 64.0584C205.82 64.3144 205.905 64.5714 205.99 64.8277C207.185 65.7765 208.355 66.7242 209.49 67.6459L210.748 68.6655C219.49 75.7363 230.899 84.4533 244.179 91.6184C243.158 88.9095 241.916 86.0764 240.372 83.3045C228.809 77.1049 217.854 68.5825 205.54 56.2733L205.344 56.0777C204.284 55.0184 203.22 53.9558 202.146 52.9088C202.488 53.9736 202.829 55.0434 203.173 56.1213ZM205.78 55.6409L205.976 55.8365C217.933 67.7884 228.599 76.148 239.786 82.2777C239.342 81.5241 238.877 80.7764 238.385 80.0397C237.588 78.8476 236.418 77.6677 235.287 76.5267C235.011 76.2489 234.735 75.9689 234.461 75.6872C222.887 68.9772 215.024 60.1325 206.124 50.114C205.211 49.0859 204.287 48.0455 203.347 46.9943C201.903 45.3797 200.302 43.8182 198.573 42.3517C199.699 45.4503 200.731 48.5358 201.74 51.6564C203.101 52.9644 204.444 54.3052 205.78 55.6409ZM238.898 79.6965C239.589 80.7304 240.226 81.7851 240.823 82.8481C242.499 83.7431 244.188 84.5899 245.895 85.3913C255.888 90.0804 266.581 93.206 276.923 96.2286C282.436 97.8401 288.073 99.4945 293.636 101.388C294.383 98.8894 295.053 96.37 295.602 93.8548C290.917 92.7447 286.211 91.7544 281.602 90.7856C267.881 87.9015 253.694 84.919 240.545 78.847C239.107 78.183 237.726 77.4906 236.393 76.7712C237.323 77.721 238.228 78.695 238.898 79.6965ZM316.513 118.981C317.079 122.245 316.757 126.022 315.619 130.472C314.848 133.487 313.759 136.304 312.428 138.958C313.899 137.669 315.377 136.387 316.866 135.115C318.893 131.546 320.526 127.71 321.66 123.575C323.01 118.654 323.468 114.573 322.924 111.138C320.759 113.731 318.625 116.35 316.513 118.981ZM311.636 140.478C309.582 144.198 307.016 147.568 304.067 150.637C308.638 146.551 312.68 141.959 315.878 136.78C314.455 138.005 313.042 139.239 311.636 140.478ZM281.605 168.1C281.636 168.081 281.665 168.062 281.696 168.043C281.673 168.055 281.651 168.066 281.628 168.078C281.621 168.085 281.613 168.093 281.605 168.1ZM268.186 176.627C268.234 176.677 268.271 176.727 268.315 176.778C268.417 176.669 268.518 176.56 268.619 176.451C268.475 176.51 268.33 176.568 268.186 176.627ZM251.99 185.763C251.368 186.403 250.75 187.049 250.135 187.699C251.712 187.082 253.206 186.481 254.614 185.897C255.026 185.382 255.434 184.862 255.838 184.335C254.583 184.811 253.298 185.288 251.99 185.763ZM249.141 188.755C248.992 188.915 248.842 189.074 248.693 189.234C249.806 189.157 250.868 189.097 251.85 189.053C251.914 189.027 251.977 189 252.04 188.974C252.628 188.303 253.208 187.622 253.78 186.927C252.239 187.553 250.677 188.166 249.141 188.755ZM246.119 192.014C246.037 192.103 245.953 192.193 245.871 192.282C245.251 192.955 244.634 193.624 244.023 194.283C245.723 193.578 247.507 192.815 249.161 192.096C249.824 191.415 250.477 190.718 251.121 190.007C249.386 190.72 247.666 191.407 246.119 192.014ZM241.316 196.203C241.27 196.276 241.22 196.346 241.174 196.419C241.248 196.342 241.321 196.264 241.395 196.186C241.369 196.192 241.342 196.197 241.316 196.203ZM238.799 199.729C239.382 199.548 239.929 199.38 240.434 199.228C241.007 198.807 241.578 198.377 242.149 197.938C241.931 198.017 241.717 198.095 241.495 198.175C240.921 198.38 240.327 198.589 239.729 198.799C239.417 199.114 239.107 199.425 238.799 199.729ZM237.163 201.446C237.078 201.53 236.99 201.61 236.904 201.693C237.08 201.577 237.255 201.456 237.431 201.338C237.342 201.374 237.253 201.41 237.163 201.446ZM222.38 203.045C222.11 202.827 221.843 202.599 221.582 202.361C221.301 202.428 221.021 202.491 220.741 202.554C221.275 202.73 221.808 202.896 222.34 203.053C222.354 203.051 222.367 203.048 222.38 203.045ZM223.822 200.809C223.387 200.456 222.949 200.092 222.509 199.72C221.791 199.891 221.07 200.055 220.346 200.208C220.771 200.683 221.206 201.138 221.654 201.566C222.347 201.325 223.07 201.074 223.822 200.809ZM221.927 199.225C221.501 198.861 221.073 198.493 220.642 198.121C220.519 198.015 220.396 197.908 220.272 197.802C219.719 197.914 219.165 198.021 218.612 198.122C219.026 198.652 219.444 199.175 219.874 199.677C220.559 199.534 221.244 199.384 221.927 199.225ZM219.688 197.299C219.172 196.856 218.655 196.416 218.138 195.987C217.842 196.101 217.547 196.218 217.254 196.339C217.564 196.755 217.876 197.169 218.191 197.581C218.689 197.491 219.188 197.397 219.688 197.299ZM216.668 196.586C215.487 197.093 214.339 197.658 213.26 198.305C214.667 198.145 216.083 197.941 217.504 197.699C217.224 197.33 216.945 196.958 216.668 196.586ZM217.156 195.187C216.697 194.82 216.239 194.465 215.781 194.126C215.736 194.132 215.692 194.139 215.647 194.145C215.921 194.528 216.199 194.907 216.477 195.286C216.704 195.253 216.928 195.222 217.156 195.187ZM214.953 194.241C211.774 194.663 208.59 194.925 205.441 194.988C205.844 195.384 206.252 195.774 206.664 196.157C209.568 196.085 212.609 195.829 215.787 195.387C215.508 195.005 215.227 194.626 214.953 194.241ZM204.568 195.002C204.246 195.004 203.925 195.001 203.604 195C204.241 195.307 204.877 195.615 205.512 195.923C205.196 195.618 204.879 195.314 204.568 195.002ZM201.547 194.018C201.633 194.015 201.72 194.011 201.807 194.007C201.906 193.876 202.004 193.745 202.104 193.621C201.61 193.616 201.119 193.605 200.632 193.59C200.937 193.732 201.242 193.874 201.547 194.018ZM191.704 192.766C191.829 192.774 191.955 192.78 192.08 192.788C192.083 192.772 192.087 192.757 192.09 192.741C191.903 192.708 191.72 192.668 191.534 192.633C191.591 192.677 191.647 192.721 191.704 192.766ZM189.015 191.396C188.729 191.16 188.444 190.921 188.159 190.68C187.102 190.455 186.057 190.21 185.035 189.931C185.079 190.083 185.14 190.227 185.195 190.374C186.252 190.727 187.333 191.048 188.441 191.33C188.632 191.354 188.824 191.374 189.015 191.396ZM147.507 168.248C143.624 164.378 140.826 160.464 138.851 156.485C136.448 154.588 134.006 152.726 131.53 150.933C133.633 155.169 136.741 159.393 141.172 163.687C145.481 167.863 149.955 171.398 154.547 174.373C152.091 172.504 149.738 170.471 147.507 168.248ZM134.847 134.874C135.173 128.039 136.544 120.929 137.992 113.442C138.273 111.989 138.557 110.521 138.837 109.036C139.08 107.745 139.308 106.42 139.533 105.078C137.707 102.773 135.775 100.585 133.721 98.6247C133.541 99.625 133.356 100.613 133.16 101.578C132.582 104.434 131.972 107.211 131.382 109.897C129.881 116.726 128.491 123.073 127.966 129.146C130.331 130.954 132.628 132.886 134.847 134.874ZM139.669 104.263C140.037 102.017 140.393 99.7084 140.759 97.3139C142.295 87.2475 143.927 76.587 147.282 67.1413C145.379 64.5037 143.405 62.2293 141.183 60.2121C138.302 69.0135 136.816 78.8039 135.416 88.0755C134.899 91.4948 134.401 94.7718 133.85 97.895C135.91 99.8257 137.841 101.986 139.669 104.263ZM147.536 66.4394C151.606 55.3454 158.155 46.0252 169.873 41.4631C167.983 38.5207 165.757 36.0506 163.249 33.9266C151.557 38.4643 145.248 48.1301 141.394 59.5643C143.635 61.5689 145.626 63.8277 147.536 66.4394ZM170.436 41.2427C170.572 41.192 170.701 41.1342 170.839 41.0848C170.906 41.0608 170.974 41.0365 171.042 41.0128C183.412 36.662 192.48 42.9174 200.802 50.7633C199.8 47.6875 198.768 44.6421 197.635 41.5773C188.393 34.1172 175.836 29.4432 164.247 33.54C164.202 33.5558 164.159 33.5713 164.113 33.5875C164.019 33.6214 163.931 33.6616 163.837 33.6957C166.326 35.8346 168.549 38.3128 170.436 41.2427ZM164.041 32.9577C175.523 28.8981 187.913 33.2651 197.22 40.4678C196.696 39.0797 196.142 37.6828 195.564 36.2778C182.865 27.0558 164.538 20.4027 149.233 25.1408C154.392 27.3065 159.186 29.8425 163.298 33.2463C163.548 33.1516 163.787 33.0478 164.041 32.9577ZM198.159 41.211C200.222 42.8875 202.122 44.6984 203.806 46.5823C204.747 47.6344 205.672 48.6756 206.585 49.704C214.989 59.1636 222.46 67.5733 233.012 74.1021C232.41 73.3849 231.881 72.6513 231.51 71.8946C231.499 71.8722 231.489 71.8561 231.478 71.8343C223.561 67.0252 218.315 60.5662 212.812 53.7782C209.011 49.09 205.081 44.242 200.149 39.9234C199.008 38.9242 197.793 37.9413 196.519 36.9818C197.091 38.3993 197.639 39.8088 198.159 41.211ZM234.841 75.1925C236.724 76.2817 238.702 77.316 240.803 78.286C253.889 84.3294 268.041 87.3042 281.728 90.1814C286.337 91.1501 291.043 92.1405 295.731 93.2508C296.168 91.1735 296.519 89.1014 296.762 87.0476C293.001 86.5387 289.23 86.0815 285.529 85.6402C268.647 83.6276 251.19 81.5465 235.49 74.0145C234.467 73.524 233.497 73.002 232.554 72.4633C233.161 73.3918 233.977 74.3013 234.841 75.1925ZM323.476 110.477C324.155 114.106 323.706 118.449 322.255 123.739C321.256 127.382 319.875 130.795 318.184 133.997C319.537 132.85 320.897 131.712 322.267 130.583C324.737 126.403 326.769 121.923 328.236 117.091C329.358 113.397 331.192 107.352 330.649 102.19C328.213 104.906 325.825 107.675 323.476 110.477ZM317.349 135.515C314.638 140.265 311.232 144.538 307.354 148.392C312.739 143.591 317.48 138.224 321.28 132.202C319.962 133.299 318.651 134.403 317.349 135.515ZM269.993 175.871C269.715 176.174 269.438 176.476 269.159 176.778C270.395 176.235 271.625 175.686 272.84 175.124C273.075 174.993 273.304 174.861 273.532 174.729C273.836 174.438 274.096 174.151 274.311 173.868C272.913 174.572 271.466 175.239 269.993 175.871ZM263.9 179.868C263.517 180.204 263.135 180.54 262.753 180.878C263.771 180.434 264.764 179.982 265.719 179.526C265.92 179.318 266.119 179.108 266.319 178.898C265.522 179.23 264.713 179.553 263.9 179.868ZM262.256 180.493C261.661 180.714 261.066 180.932 260.471 181.145C259.791 181.389 259.114 181.624 258.439 181.856C258.36 181.968 258.281 182.08 258.201 182.19C258.531 182.255 258.846 182.322 259.144 182.389C259.752 182.144 260.358 181.896 260.96 181.644C261.391 181.26 261.823 180.876 262.256 180.493ZM254.967 186.442C254.427 187.114 253.88 187.778 253.325 188.43C253.382 188.406 253.438 188.382 253.494 188.357C254.389 187.556 255.289 186.746 256.193 185.931C255.787 186.102 255.378 186.272 254.967 186.442ZM243.838 195.031C244.68 194.863 245.522 194.708 246.365 194.558C246.835 194.166 247.306 193.771 247.776 193.37C246.468 193.932 245.125 194.501 243.838 195.031ZM242.466 195.951C241.873 196.582 241.285 197.2 240.703 197.802C241.801 197.412 242.811 197.045 243.73 196.704C244.283 196.264 244.835 195.818 245.388 195.365C244.412 195.548 243.438 195.744 242.466 195.951ZM243.713 197.946C244.419 197.492 245.125 197.037 245.824 196.572C245.544 196.68 245.256 196.79 244.96 196.901C244.547 197.255 244.132 197.604 243.713 197.946ZM226.873 205.355C226.464 205.257 226.065 205.134 225.678 204.988C225.508 205.025 225.334 205.063 225.169 205.099C224.838 205.203 224.514 205.303 224.198 205.396C224.424 205.419 224.653 205.423 224.88 205.438C225.544 205.43 226.209 205.4 226.873 205.355ZM219.973 205.173C219.335 204.98 218.702 204.766 218.076 204.52C217.71 204.586 217.345 204.651 216.979 204.714C217.976 204.901 218.974 205.055 219.973 205.173ZM217.03 204.076C216.914 204.024 216.796 203.98 216.68 203.927C216.256 204.073 215.853 204.213 215.495 204.34C216.006 204.257 216.518 204.164 217.03 204.076ZM218.163 203.881C219.146 203.703 220.128 203.515 221.108 203.316C220.661 203.174 220.214 203.024 219.767 202.87C219.329 203.019 218.902 203.165 218.498 203.304C218.179 203.412 217.869 203.519 217.564 203.623C217.764 203.709 217.962 203.8 218.163 203.881ZM218.452 202.4C217.377 202.001 216.302 201.573 215.229 201.121C214.582 201.211 213.939 201.288 213.298 201.356C214.136 201.887 214.986 202.376 215.849 202.817C216.697 202.706 217.566 202.566 218.452 202.4ZM219.626 202.167C219.879 202.114 220.133 202.059 220.389 202.002C220.586 201.935 220.787 201.865 220.99 201.795C220.529 201.339 220.081 200.856 219.642 200.353C218.566 200.573 217.489 200.772 216.416 200.942C217.485 201.379 218.556 201.789 219.626 202.167ZM219.186 199.819C218.758 199.309 218.339 198.783 217.925 198.249C215.977 198.59 214.037 198.859 212.114 199.042C212.106 199.048 212.098 199.054 212.089 199.061C213.163 199.553 214.238 200.03 215.315 200.486C216.598 200.302 217.892 200.077 219.186 199.819ZM202.747 195.273C202.521 195.547 202.299 195.826 202.082 196.113C202.916 196.151 203.762 196.172 204.621 196.176C203.997 195.874 203.372 195.573 202.747 195.273ZM200.199 194.069C199.834 193.9 199.469 193.732 199.103 193.566C197.213 193.594 195.324 193.572 193.443 193.485C194.874 193.746 196.327 193.945 197.798 194.09C198.595 194.088 199.391 194.088 200.199 194.069ZM190.597 192.681C190.471 192.58 190.344 192.479 190.218 192.378C189.581 192.242 188.951 192.095 188.328 191.938C187.774 191.868 187.219 191.789 186.665 191.708C187.585 192.031 188.517 192.325 189.464 192.585C189.842 192.62 190.22 192.65 190.597 192.681ZM159.238 177.919C158.677 177.657 158.114 177.397 157.551 177.142C158.825 177.822 160.103 178.466 161.386 179.074C160.664 178.701 159.949 178.314 159.238 177.919ZM127.38 128.699C127.938 122.718 129.305 116.471 130.779 109.764C131.368 107.081 131.978 104.306 132.555 101.455C132.776 100.365 132.985 99.2507 133.187 98.1157C131.545 96.5986 129.818 95.246 128 94.102C127.848 94.816 127.697 95.5283 127.536 96.2565C126.58 100.598 125.074 104.981 123.618 109.22C122.02 113.871 120.387 118.653 119.45 123.44C122.16 124.984 124.809 126.764 127.38 128.699ZM140.887 59.114C144.757 47.7491 151.073 38.1236 162.705 33.4765C158.558 30.0985 153.687 27.6005 148.345 25.4214C148.309 25.4337 148.272 25.4432 148.237 25.4557C148.101 25.5025 147.969 25.549 147.836 25.5965C134.007 30.547 132.541 40.3404 132.571 53.594C135.776 55.2403 138.482 57.0399 140.887 59.114ZM132.771 19.1619C133.966 19.5778 135.154 19.9861 136.334 20.3915C140.441 21.8028 144.489 23.1948 148.348 24.7728C163.675 19.6517 182.131 26.0501 195.121 35.2008C194.638 34.0531 194.138 32.8994 193.607 31.733C193.077 30.567 192.615 29.3795 192.219 28.1702C173.75 17.0994 146.695 10.1315 125.907 16.8303C128.203 17.5961 130.497 18.37 132.771 19.1619ZM331.194 101.58C331.945 106.994 330.002 113.4 328.827 117.271C327.513 121.595 325.761 125.645 323.646 129.447C324.916 128.41 326.196 127.383 327.482 126.365C330.475 121.455 332.891 116.319 334.731 110.948C336.199 106.663 338.392 100.256 337.577 94.7686C335.409 96.99 333.283 99.2649 331.194 101.58ZM322.773 130.965C318.462 138.242 312.796 144.583 306.283 150.152C306.326 150.125 306.369 150.098 306.412 150.072C314.694 143.283 321.366 135.921 326.478 127.954C325.236 128.949 324.001 129.954 322.773 130.965ZM268.384 178.009C268.175 178.103 267.964 178.195 267.753 178.287C267.612 178.436 267.47 178.584 267.329 178.733C267.709 178.539 268.081 178.345 268.443 178.151C268.429 178.104 268.402 178.056 268.384 178.009ZM266.07 180.053C265.774 180.36 265.475 180.665 265.177 180.97C266.41 180.274 267.32 179.665 267.864 179.166C267.291 179.461 266.692 179.756 266.07 180.053ZM264.496 180.784C263.477 181.245 262.409 181.708 261.297 182.171C261.072 182.372 260.846 182.574 260.621 182.776C260.844 182.844 261.048 182.914 261.236 182.984C261.991 182.626 262.69 182.283 263.337 181.953C263.725 181.565 264.111 181.176 264.496 180.784ZM261.527 183.74C261.466 183.712 261.386 183.682 261.315 183.653C260.254 184.157 259.124 184.667 257.948 185.179C257.727 185.379 257.504 185.579 257.283 185.779C256.614 186.383 255.948 186.983 255.284 187.58C256.969 186.838 258.48 186.138 259.64 185.546C260.273 184.95 260.902 184.348 261.527 183.74ZM253 189.627C252.411 190.152 251.823 190.673 251.236 191.19C252.729 190.533 253.998 189.967 254.823 189.597C254.355 189.592 253.733 189.602 253 189.627ZM246.286 195.731C247.036 195.438 247.679 195.177 248.203 194.956C248.259 194.917 248.316 194.88 248.372 194.841C247.916 194.915 247.458 194.998 247.002 195.077C246.765 195.298 246.525 195.514 246.286 195.731ZM215.901 203.542C215.842 203.513 215.782 203.484 215.722 203.454C214.662 203.587 213.638 203.672 212.657 203.703C213.194 203.853 213.732 203.993 214.271 204.126C214.67 203.975 215.2 203.786 215.901 203.542ZM211.492 200.903C211.187 200.688 210.883 200.469 210.581 200.245C210.441 200.368 210.299 200.49 210.165 200.618C210.022 200.754 209.883 200.874 209.744 200.994C210.321 200.975 210.904 200.945 211.492 200.903ZM212.471 200.823C213.016 200.773 213.564 200.712 214.115 200.645C213.247 200.266 212.379 199.874 211.514 199.475C211.361 199.59 211.214 199.712 211.066 199.833C211.531 200.175 211.999 200.505 212.471 200.823ZM210.887 199.185C210.863 199.174 210.839 199.163 210.815 199.152C210.616 199.167 210.418 199.18 210.219 199.193C210.332 199.28 210.445 199.363 210.558 199.449C210.666 199.359 210.776 199.272 210.887 199.185ZM209.668 198.611C209.524 198.543 209.38 198.475 209.236 198.406C209.324 198.478 209.412 198.55 209.5 198.621C209.556 198.618 209.612 198.614 209.668 198.611ZM207.046 197.353C206.658 197.165 206.27 196.977 205.883 196.789C204.436 196.809 203.025 196.779 201.646 196.706C201.276 197.223 200.921 197.76 200.581 198.317C203.169 198.665 205.839 198.762 208.562 198.661C208.051 198.237 207.546 197.802 207.046 197.353ZM199.92 198.219C200.239 197.683 200.572 197.166 200.918 196.667C199.343 196.564 197.815 196.397 196.332 196.171C197.321 196.851 198.318 197.505 199.322 198.129C199.52 198.162 199.721 198.188 199.92 198.219ZM201.34 196.073C201.61 195.705 201.888 195.347 202.172 194.998L202.125 194.976C200.667 194.935 199.222 194.847 197.791 194.707C196.581 194.71 195.383 194.692 194.196 194.654C194.518 194.891 194.841 195.124 195.165 195.355C197.136 195.709 199.196 195.947 201.34 196.073ZM193.115 194.627C192.944 194.62 192.777 194.606 192.607 194.598C192.619 194.674 192.626 194.751 192.643 194.826C192.996 194.91 193.353 194.991 193.712 195.067C193.513 194.921 193.313 194.776 193.115 194.627ZM169.311 182.96C163.537 180.887 157.999 178.258 152.721 175.056C151.704 174.64 150.682 174.238 149.655 173.849C156.038 177.712 162.716 180.814 169.668 183.148C169.549 183.085 169.43 183.023 169.311 182.96ZM149.9 173.282C144.312 169.615 139.02 165.301 134.044 160.342C128.701 155.017 124.7 149.757 122.043 144.59C119.826 143.243 117.585 141.985 115.32 140.84C118.581 146.635 123.336 151.966 127.875 156.557C133.916 162.666 140.333 167.902 147.094 172.264C148.034 172.592 148.97 172.93 149.9 173.282ZM114.804 139.893C117.069 141.009 119.312 142.234 121.528 143.553C118.691 137.648 117.623 131.868 118.352 126.258C118.46 125.424 118.6 124.59 118.756 123.757C116.603 122.552 114.412 121.505 112.193 120.654C112.109 120.949 112.02 121.243 111.941 121.54C110.244 127.922 111.751 134.126 114.804 139.893ZM118.884 123.12C119.835 118.361 121.451 113.625 123.034 109.019C124.485 104.796 125.985 100.43 126.933 96.1233C127.11 95.3218 127.277 94.536 127.444 93.7518C127.374 93.7104 127.307 93.6633 127.238 93.6223C125.864 92.817 124.294 92.1048 122.611 91.4603C122.496 92.0164 122.387 92.5696 122.261 93.1319C121.056 98.5053 118.907 103.531 116.829 108.391C115.217 112.161 113.56 116.046 112.364 120.055C114.57 120.898 116.746 121.932 118.884 123.12ZM127.55 93.0897C127.561 93.0961 127.572 93.1033 127.582 93.1098C130.715 78.2262 132.072 66.4195 131.962 55.1652C131.959 54.7643 131.956 54.3673 131.954 53.9725C130.392 53.183 128.713 52.4286 126.888 51.6973C124.389 50.6961 121.781 49.7551 119.145 48.8501C119.405 49.5321 119.661 50.2107 119.907 50.883C124.729 64.0355 125.617 76.4571 122.739 90.8479C124.488 91.5132 126.12 92.2511 127.55 93.0897ZM119.328 51.0957C119.025 50.2691 118.707 49.4323 118.385 48.5917C116.132 47.8249 113.863 47.0822 111.627 46.3515C109.11 45.5289 106.574 44.6978 104.048 43.8313C104.706 44.7278 105.286 45.5429 105.757 46.2616C115.218 60.6999 118.798 74.3393 116.939 88.9752C118.732 89.4759 120.491 90.0204 122.154 90.6286C124.986 76.3955 124.097 64.1043 119.328 51.0957ZM114.037 12.9427C117.615 14.1017 121.263 15.2869 124.912 16.4985C145.758 9.3752 173.126 16.2057 191.947 27.2857C190.994 24.0803 190.508 20.7214 190.489 17.1964C163.079 4.50461 124.791 0.539814 98.8779 7.94329C103.954 9.66794 109.048 11.3273 114.037 12.9427ZM229.806 67.6065C229.659 69.1418 229.769 69.2073 230.088 69.3572C230.309 69.4611 230.61 69.6083 230.968 69.9712C231.262 70.1569 231.553 70.346 231.856 70.5232C232.666 70.9974 233.49 71.443 234.32 71.8734C232.89 70.9459 231.616 69.868 230.563 68.6029C230.297 68.2846 230.048 67.949 229.806 67.6065ZM338.117 94.2205C339.149 99.9571 336.845 106.683 335.315 111.148C333.63 116.067 331.458 120.785 328.817 125.318C330.232 124.209 331.656 123.112 333.092 122.03C336.337 116.672 339.022 111.075 341.123 105.234L341.177 105.084C342.918 100.245 345.3 93.6191 344.353 88.1535C342.232 90.1206 340.156 92.1468 338.117 94.2205ZM327.957 126.778C323.255 134.47 317.133 141.606 309.563 148.219C310.384 147.751 311.211 147.295 312.043 146.847C320.167 139.685 326.887 131.897 332.184 123.497C330.765 124.578 329.355 125.671 327.957 126.778ZM306.765 150.581C302.312 154.228 297.396 157.71 292.016 161.033C292.533 160.864 293.053 160.704 293.575 160.554C299.445 156.861 304.841 152.951 309.752 148.823C308.748 149.396 307.752 149.981 306.765 150.581ZM290.161 162.347C289.813 162.615 289.458 162.878 289.101 163.14C288.973 163.265 288.843 163.388 288.713 163.512C289.635 162.974 290.538 162.428 291.438 161.881C291.01 162.029 290.585 162.185 290.161 162.347ZM268.987 178.571C268.927 178.722 268.823 178.882 268.699 179.045C269.075 178.731 269.449 178.417 269.825 178.103C269.553 178.258 269.274 178.415 268.987 178.571ZM263.684 182.481C263.281 182.884 262.877 183.285 262.471 183.684C262.519 183.739 262.56 183.795 262.584 183.851C262.606 183.9 262.622 183.969 262.62 184.05C263.928 182.99 265.23 181.925 266.524 180.854C265.724 181.371 264.766 181.917 263.684 182.481ZM260.076 185.984C259.837 186.209 259.6 186.437 259.36 186.66C259.735 186.364 260.109 186.066 260.482 185.768C260.353 185.838 260.214 185.911 260.076 185.984ZM253.848 190.71C252.727 191.209 251.276 191.852 249.685 192.544C249.479 192.723 249.273 192.899 249.068 193.076C248.652 193.496 248.231 193.907 247.808 194.314C248.377 194.22 248.946 194.124 249.513 194.038C250.231 193.533 250.946 193.024 251.657 192.508C252.393 191.92 253.123 191.319 253.848 190.71ZM204.301 200.748C205.716 200.943 207.201 201.028 208.736 201.017C209.053 200.778 209.394 200.5 209.74 200.171C209.849 200.066 209.965 199.968 210.077 199.867C209.812 199.664 209.549 199.457 209.286 199.248C206.351 199.393 203.47 199.314 200.68 198.953C201.216 199.269 201.753 199.58 202.292 199.879C202.96 200.177 203.63 200.466 204.301 200.748ZM194.908 195.932C194.568 195.87 194.229 195.805 193.894 195.736C194.873 196.256 195.859 196.769 196.851 197.272C196.2 196.837 195.553 196.39 194.908 195.932ZM191.993 194.661C191.988 194.627 191.98 194.594 191.975 194.56C191.876 194.554 191.777 194.548 191.678 194.542C191.721 194.566 191.764 194.589 191.808 194.613C191.869 194.629 191.931 194.645 191.993 194.661ZM185.255 191.859C185.134 191.812 185.017 191.758 184.897 191.711C185.051 191.813 185.204 191.916 185.359 192.019C185.322 191.967 185.29 191.911 185.255 191.859ZM179.3 188.6C179.076 188.488 178.856 188.37 178.634 188.253C177.527 188.293 176.421 188.406 175.318 188.599C177.366 189.195 179.417 189.713 181.471 190.15C180.64 189.704 179.919 189.184 179.3 188.6ZM177.593 187.69C176.668 187.169 175.763 186.62 174.886 186.03C174.767 185.95 174.658 185.859 174.541 185.777C174.075 185.528 173.611 185.278 173.155 185.014C172.999 184.93 172.844 184.848 172.689 184.764C163.603 182.048 154.958 178.071 146.813 172.821C144.913 172.16 142.989 171.555 141.041 171.007C151.909 179.06 162.937 184.806 174.061 188.22C175.236 187.953 176.414 187.78 177.593 187.69ZM111.784 119.838C112.988 115.811 114.648 111.922 116.262 108.148C118.329 103.314 120.466 98.3143 121.659 92.9963C121.792 92.4048 121.906 91.8229 122.027 91.2384C120.383 90.6335 118.638 90.0926 116.858 89.5935C116.776 90.1929 116.688 90.7935 116.588 91.3966C115.41 98.4647 112.611 103.847 109.647 109.545C108.226 112.277 106.766 115.09 105.491 118.12C107.61 118.496 109.71 119.08 111.784 119.838ZM116.339 88.8072C118.152 74.3578 114.596 60.8776 105.241 46.6001C104.655 45.7058 103.894 44.6552 103.019 43.4778C98.5032 41.9079 94.0316 40.2045 89.7663 38.1852C90.0407 38.4743 90.2928 38.7463 90.5079 38.9918C104.322 54.7544 110.425 70.0925 109.632 87.1286C111.823 87.6489 114.099 88.1955 116.339 88.8072ZM102.357 42.5899C102.116 42.269 101.872 41.9431 101.619 41.6061C95.7937 33.8509 86.9904 22.131 89.5551 14.3085C90.5074 11.4043 92.981 9.2656 96.8777 7.91603C94.5324 7.10978 92.193 6.29144 89.8747 5.44679C88.7167 5.02513 87.4694 4.58883 86.1598 4.13135C81.7714 2.59686 76.6745 0.814173 71.9186 -1.48343C68.3536 -0.183188 66.228 1.78743 65.6335 4.38214C63.6981 12.8309 77.469 26.1795 85.697 34.1552C86.7371 35.1634 87.6683 36.0667 88.4681 36.8621C92.9048 39.0744 97.5982 40.9143 102.357 42.5899ZM86.3632 3.54799C87.6751 4.00683 88.9248 4.44417 90.0855 4.8667C92.6521 5.80144 95.2453 6.70318 97.8439 7.59204C123.811 -0.159117 162.671 3.72426 190.49 16.5164C190.538 12.3563 191.23 7.96577 192.568 3.32532C173.399 -3.16485 153.312 -5.22136 137.432 -6.25934C116.431 -7.63246 92.3365 -8.1688 72.7421 -1.777C77.3095 0.379765 82.1634 2.07954 86.3632 3.54799ZM191.103 16.8008C192.384 17.3996 193.65 18.0106 194.881 18.6477C207.025 24.9302 215.915 33.1666 221.304 43.1279C223.021 46.3026 224.114 50.2816 225.171 54.1296C226.362 58.4682 227.592 62.9266 229.727 66.3691C230.749 64.9459 233.184 62.6643 236.278 60.0113C235.939 57.5405 235.697 55.0636 235.468 52.6541C234.793 45.5649 234.156 38.8685 231.142 32.2947C226.034 21.1517 215.874 12.5896 200.082 6.11928C197.793 5.18166 195.478 4.3298 193.152 3.53032C191.807 8.20668 191.121 12.6243 191.103 16.8008ZM293.01 77.4208C294.323 77.3783 295.649 77.3358 296.98 77.2948C296.932 76.7541 296.87 76.2174 296.798 75.6834C296.797 75.6834 296.796 75.6835 296.795 75.6839C291.155 76.4272 284.509 77.3032 277.723 77.7867C282.859 77.7479 287.976 77.5848 293.01 77.4208ZM344.89 87.66C346.048 93.3562 343.566 100.268 341.758 105.293L341.704 105.443C339.759 110.85 337.295 116.07 334.336 121.096C335.798 120.007 337.274 118.938 338.758 117.88C342.088 112.336 345.001 106.394 347.393 100.025L347.577 99.5379C349.447 94.568 351.982 87.8196 350.876 82.4179C348.839 84.1084 346.847 85.8606 344.89 87.66ZM333.475 122.514C328.367 130.857 321.855 138.647 313.984 145.827C315.012 145.299 316.049 144.786 317.096 144.291C324.924 137.031 332.048 128.72 337.939 119.217C336.439 120.299 334.953 121.401 333.475 122.514ZM312.113 147.511C310.252 149.142 308.325 150.744 306.32 152.309C302.879 154.996 299.22 157.587 295.358 160.082C296.035 159.92 296.716 159.78 297.402 159.653C303.649 155.534 309.743 150.919 315.488 145.758C314.352 146.324 313.227 146.908 312.113 147.511ZM293.607 161.19C291.327 162.622 288.981 164.023 286.564 165.389C285.822 165.984 285.049 166.562 284.245 167.119C283.913 167.45 283.565 167.774 283.205 168.094C287.486 165.799 291.766 163.298 295.986 160.575C295.187 160.757 294.394 160.961 293.607 161.19ZM277.107 173.089C277.595 172.85 278.075 172.604 278.56 172.361C278.432 172.318 278.304 172.269 278.177 172.23C277.838 172.521 277.479 172.807 277.107 173.089ZM193.355 196.148C193.808 196.615 194.456 196.97 195.316 197.22C195.371 197.236 195.427 197.249 195.482 197.264C194.77 196.897 194.06 196.524 193.355 196.148ZM191.577 195.19C190.774 194.979 189.987 194.747 189.216 194.494C190.555 195.323 191.907 196.127 193.27 196.9C192.795 196.525 192.448 196.071 192.228 195.544C192.01 195.427 191.794 195.309 191.577 195.19ZM182.818 191.05C179.885 190.48 176.958 189.75 174.038 188.86C173.541 188.976 173.044 189.104 172.548 189.255C176.388 190.412 180.23 191.295 184.08 191.908C183.658 191.623 183.237 191.337 182.818 191.05ZM138.19 169.618C132.39 165.123 126.638 159.979 120.944 154.181L120.343 153.569C115.932 149.084 110.335 143.389 106.751 137.139C104.633 136.387 102.497 135.749 100.342 135.254C103.665 140.502 108.663 145.37 112.637 149.238C113.485 150.064 114.289 150.846 115.025 151.581C121.554 158.102 128.022 163.834 134.452 168.791C135.71 169.041 136.957 169.316 138.19 169.618ZM106.3 136.322C103.397 130.95 102.057 125.196 104.28 119.461C104.392 119.173 104.508 118.89 104.624 118.606C102.598 118.295 100.556 118.182 98.5039 118.297C98.3061 118.633 98.1176 118.974 97.9503 119.327C95.561 124.365 96.9428 129.6 99.8938 134.528C102.048 134.997 104.184 135.597 106.3 136.322ZM100.471 89.996C100.247 95.8711 100.014 101.946 98.7412 107.396C97.7917 111.461 96.1031 113.656 94.3153 115.981C93.6585 116.835 92.9862 117.712 92.3198 118.712C94.2676 118.159 96.2096 117.829 98.1412 117.698C98.9898 116.326 100.05 115.057 101.086 113.821C102.496 112.136 103.954 110.394 104.883 108.39C107.769 102.171 108.484 94.9251 108.927 88.6218C108.951 88.2835 108.967 87.9472 108.985 87.61C108.949 87.6016 108.912 87.5929 108.876 87.5842C105.917 86.8824 103.118 86.217 100.665 85.4793C100.589 86.9551 100.529 88.4637 100.471 89.996ZM100.694 84.843C103.164 85.5935 106.008 86.2696 109.018 86.9831C109.019 86.9833 109.017 86.9828 109.018 86.9831C109.77 70.1612 103.714 54.9974 90.0441 39.3987C89.5615 38.8479 88.8948 38.1593 88.1047 37.372C85.1408 35.8897 82.29 34.239 79.6082 32.3572C95.1585 49.2617 101.674 65.4825 100.694 84.843ZM56.9518 -13.0563C52.8739 -11.5965 50.4839 -9.39856 49.8447 -6.5157C47.7561 2.90324 63.9352 17.7331 73.6021 26.5934C75.4757 28.3111 77.0508 29.755 78.2146 30.9028L78.3707 30.6971C80.9526 32.6534 83.7211 34.3642 86.6112 35.9033C86.1808 35.4842 85.7326 35.0497 85.2675 34.599C76.9463 26.5321 63.0186 13.0319 65.0317 4.24376C65.6454 1.56899 67.7113 -0.474433 71.1605 -1.85804C65.4252 -4.71981 60.2808 -8.36616 57.6065 -13.2759C57.3853 -13.204 57.164 -13.1322 56.9518 -13.0563ZM128.181 -19.551C106.603 -19.8148 79.7789 -20.1401 58.2077 -13.4652C60.9062 -8.59723 66.1472 -4.98766 71.9547 -2.15457C72.0827 -2.19946 72.1969 -2.25066 72.3283 -2.29395C92.0626 -8.79433 116.333 -8.25801 137.472 -6.87575C153.383 -5.83549 173.511 -3.7746 192.738 2.7307C194.204 -2.1724 196.387 -7.35541 199.285 -12.8392C175.738 -18.1998 151.292 -19.2681 128.181 -19.551ZM247.779 49.53C247.908 48.6998 248.039 47.8662 248.172 47.0304C249.882 36.2219 251.651 25.0452 246.861 14.811C239.805 -0.270331 221.972 -6.83456 207.225 -10.869C204.798 -11.5328 202.356 -12.13 199.907 -12.6957C196.983 -7.1821 194.789 -1.97987 193.323 2.93601C195.67 3.74195 198.006 4.60133 200.315 5.54744C216.26 12.0802 226.527 20.7453 231.703 32.0376C234.761 38.7065 235.433 45.7674 236.083 52.5957C236.299 54.8712 236.525 57.2074 236.834 59.5367C239.556 57.2222 242.726 54.658 245.867 52.1521C246.716 51.4753 247.359 50.9624 247.587 50.7687C247.591 50.7428 247.594 50.7167 247.599 50.6908L247.779 49.53ZM296.338 73.6934C283.579 75.4594 269.116 77.4618 256.863 74.0375C244.89 70.6924 245.917 61.538 247.444 51.6821C247.152 51.9166 246.764 52.2269 246.252 52.635C244.306 54.1875 240.435 57.276 236.937 60.2636C236.993 60.6537 237.043 61.0446 237.104 61.4332C240.396 82.4949 275.648 77.8484 296.712 75.0716C296.64 74.6032 296.56 74.1379 296.469 73.6752C296.425 73.6816 296.382 73.6873 296.338 73.6934ZM351.926 71.3727C342.012 66.5817 326.541 69.1271 314.111 71.1722C310.715 71.731 307.507 72.2585 304.695 72.5911C302.227 72.8827 299.714 73.2265 297.081 73.5909C297.171 74.0547 297.252 74.5216 297.324 74.9912C301.233 74.4761 304.625 74.0365 307.3 73.831C309.061 73.6958 311.175 73.4633 313.412 73.2164C324.544 71.9893 339.79 70.3086 347.503 75.9822C349.481 77.4372 350.647 79.2721 351.25 81.3151C353.134 79.7723 355.056 78.2798 357.017 76.8435C356.265 74.6208 354.702 72.7142 351.926 71.3727ZM353.523 95.4017L353.79 94.7276C355.922 89.3585 358.579 82.6518 357.207 77.4708C355.24 78.9162 353.313 80.4177 351.423 81.9709C352.729 87.5896 350.093 94.6053 348.154 99.756L347.971 100.243C345.734 106.197 343.043 111.777 339.986 117.011C341.397 116.019 342.817 115.04 344.25 114.081C347.859 108.09 350.967 101.858 353.523 95.4017ZM343.472 115.356C342.043 116.326 340.625 117.311 339.218 118.312C333.49 127.824 326.537 136.164 318.87 143.471C319.802 143.051 320.74 142.64 321.689 142.248C330.205 134.008 337.507 125.008 343.472 115.356ZM317.445 144.809C311.577 150.243 305.318 155.091 298.885 159.407C299.569 159.308 300.259 159.229 300.953 159.167C307.988 154.316 314.493 149.068 320.428 143.455C319.424 143.891 318.431 144.343 317.445 144.809ZM297.635 160.24C292.004 163.947 286.252 167.253 280.527 170.199C280.245 170.398 279.958 170.594 279.667 170.788C279.368 171.116 279.05 171.441 278.706 171.759C278.915 171.828 279.124 171.893 279.333 171.973C286.602 168.292 293.476 164.262 299.908 159.895C299.144 159.986 298.387 160.103 297.635 160.24ZM211.289 204.524C210.181 204.164 209.079 203.76 207.984 203.312C207.516 203.2 207.196 203.089 207.041 202.913C205.873 202.407 204.713 201.855 203.561 201.26C202.926 201.155 202.303 201.033 201.7 200.88C201.209 200.756 200.658 200.512 200.126 200.277C199.864 200.161 199.603 200.045 199.349 199.945L199.031 199.818L199.19 199.514C199.246 199.408 199.304 199.306 199.361 199.202C198.873 198.968 198.387 198.731 197.902 198.491C196.97 198.301 196.05 198.077 195.144 197.813C194.922 197.748 194.715 197.674 194.515 197.595C199.978 200.597 205.611 203.059 211.289 204.524ZM186.487 193.496C186.084 193.235 185.682 192.973 185.281 192.708C180.693 192.05 176.117 191.013 171.545 189.59C171.123 189.74 170.702 189.902 170.281 190.08C175.499 191.673 180.904 192.854 186.487 193.496ZM169.4 189.802C169.8 189.619 170.201 189.448 170.602 189.29C158.495 185.38 146.41 178.77 134.193 169.369C132.884 169.111 131.561 168.881 130.223 168.683C141.514 177.239 154.689 185.16 169.4 189.802ZM105.083 146.723C106.438 147.944 107.718 149.097 108.82 150.158C114.626 155.745 121.46 161.953 129.197 167.901C130.519 168.078 131.823 168.292 133.116 168.528C126.981 163.728 120.812 158.234 114.589 152.018C113.855 151.285 113.053 150.504 112.207 149.681C108.077 145.661 102.862 140.579 99.5056 135.078C97.4002 134.631 95.2778 134.317 93.1391 134.154C96.2287 138.741 101.032 143.072 105.083 146.723Z" fill="white"/>
</g>
<defs>
<clipPath id="clip0_910_6143">
<rect width="332.932" height="332.932" fill="white" transform="matrix(-0.941493 0.337032 0.337032 0.941493 313.453 -141)"/>
</clipPath>
</defs>
</svg>
