<svg width="16" height="16" viewBox="0 0 16 16" fill="none" xmlns="http://www.w3.org/2000/svg">
<path fill-rule="evenodd" clip-rule="evenodd" d="M0.5 3C0.5 1.61929 1.61929 0.5 3 0.5H13C14.3807 0.5 15.5 1.61929 15.5 3V13C15.5 14.3807 14.3807 15.5 13 15.5H3C1.61929 15.5 0.5 14.3807 0.5 13V3ZM2.16667 3.83333V13C2.16667 13.4602 2.53977 13.8333 3 13.8333H13C13.4602 13.8333 13.8333 13.4602 13.8333 13V3.83333H2.16667ZM3.83333 6.33333C3.83333 5.87309 4.20643 5.5 4.66667 5.5H11.3333C11.7936 5.5 12.1667 5.87309 12.1667 6.33333C12.1667 6.79358 11.7936 7.16667 11.3333 7.16667H4.66667C4.20643 7.16667 3.83333 6.79358 3.83333 6.33333Z" fill="#8F92A1"/>
</svg>
