<svg width="16" height="16" viewBox="0 0 16 16" fill="none" xmlns="http://www.w3.org/2000/svg">
<rect width="16" height="16" rx="4" fill="#0052CC"/>
<g clip-path="url(#clip0_765_3976)">
<path d="M10.084 3.83453H5.91732C4.76732 3.83453 3.83398 4.7637 3.83398 5.90953V8.4012V8.81787C3.83398 9.9637 4.76732 10.8929 5.91732 10.8929H6.54232C6.65482 10.8929 6.80482 10.9679 6.87565 11.0595L7.50065 11.8887C7.77565 12.2554 8.22565 12.2554 8.50065 11.8887L9.12565 11.0595C9.20482 10.9554 9.32982 10.8929 9.45898 10.8929H10.084C11.234 10.8929 12.1673 9.9637 12.1673 8.81787V5.90953C12.1673 4.7637 11.234 3.83453 10.084 3.83453ZM6.33398 8.0012C6.10065 8.0012 5.91732 7.8137 5.91732 7.58453C5.91732 7.35537 6.10482 7.16787 6.33398 7.16787C6.56315 7.16787 6.75065 7.35537 6.75065 7.58453C6.75065 7.8137 6.56732 8.0012 6.33398 8.0012ZM8.00065 8.0012C7.76732 8.0012 7.58398 7.8137 7.58398 7.58453C7.58398 7.35537 7.77148 7.16787 8.00065 7.16787C8.22982 7.16787 8.41732 7.35537 8.41732 7.58453C8.41732 7.8137 8.23398 8.0012 8.00065 8.0012ZM9.66732 8.0012C9.43398 8.0012 9.25065 7.8137 9.25065 7.58453C9.25065 7.35537 9.43815 7.16787 9.66732 7.16787C9.89648 7.16787 10.084 7.35537 10.084 7.58453C10.084 7.8137 9.90065 8.0012 9.66732 8.0012Z" fill="white"/>
</g>
<defs>
<clipPath id="clip0_765_3976">
<rect width="10" height="10" fill="white" transform="translate(3 3)"/>
</clipPath>
</defs>
</svg>
